<svg width="1280" height="720" xmlns="http://www.w3.org/2000/svg" xmlns:xlink="http://www.w3.org/1999/xlink" overflow="hidden"><defs><clipPath id="clip0"><rect x="0" y="0" width="1280" height="720"/></clipPath></defs><g clip-path="url(#clip0)"><rect x="0" y="0" width="1280" height="720" fill="#FFFFFF"/><text fill="#F28E00" font-family="Open Sans,Open Sans_MSFontService,sans-serif" font-weight="700" font-size="9" transform="translate(912.054 688)">ANGEWANDTE COMPUTER</text><text fill="#F28E00" font-family="Open Sans,Open Sans_MSFontService,sans-serif" font-weight="700" font-size="9" transform="translate(1033.05 688)">-</text><text fill="#F28E00" font-family="Open Sans,Open Sans_MSFontService,sans-serif" font-weight="700" font-size="9" transform="translate(911.554 699)">UND BIOWISSENSCHAFTEN</text><path d="M1048.5 667.5 1048.5 701.516" stroke="#F28E00" stroke-width="0.666667" stroke-miterlimit="8" fill="none" fill-rule="evenodd"/><path d="M1111.64 678.147 1111.64 678.147 1108.91 678.147 1108.91 681.725 1105.73 681.725 1105.73 678.147 1103 678.147 1103 687.853 1105.73 687.853 1105.73 683.882 1108.91 683.882 1108.91 687.853 1111.64 687.853 1111.64 678.147ZM1122.2 679.275 1122.2 679.275C1121.39 678.392 1120.18 678 1118.56 678 1116.99 678 1115.73 678.392 1114.92 679.275 1114.06 680.108 1113.66 681.333 1113.66 683 1113.66 684.618 1114.06 685.843 1114.92 686.725 1115.78 687.559 1116.99 688 1118.56 688 1120.13 688 1121.34 687.559 1122.2 686.725 1123.01 685.892 1123.41 684.618 1123.41 683 1123.41 681.333 1123.01 680.108 1122.2 679.275ZM1118.56 680.157 1118.56 680.157C1119.22 680.157 1119.72 680.353 1120.08 680.843 1120.43 681.284 1120.58 682.02 1120.58 683 1120.58 683.98 1120.43 684.667 1120.08 685.108 1119.72 685.598 1119.22 685.794 1118.56 685.794 1117.2 685.794 1116.54 684.863 1116.54 683 1116.54 681.088 1117.2 680.157 1118.56 680.157ZM1131.14 680.304 1131.14 680.304C1131.49 680.451 1131.85 680.598 1132.25 680.745L1133.06 678.686C1132.1 678.245 1131.04 678 1129.98 678 1128.97 678 1128.11 678.196 1127.35 678.588 1126.64 679.029 1126.09 679.618 1125.68 680.353 1125.28 681.137 1125.08 682.02 1125.08 683.049 1125.08 684.618 1125.48 685.892 1126.29 686.725 1127.1 687.559 1128.26 688 1129.78 688 1130.84 688 1131.8 687.804 1132.66 687.461L1132.66 685.255C1132.2 685.402 1131.8 685.549 1131.39 685.696 1130.94 685.794 1130.53 685.843 1130.08 685.843 1128.61 685.843 1127.91 684.912 1127.91 683.049 1127.91 682.167 1128.06 681.431 1128.41 680.941 1128.77 680.402 1129.27 680.157 1129.93 680.157 1130.38 680.157 1130.74 680.206 1131.14 680.304ZM1143.42 678.147 1143.42 678.147 1140.69 678.147 1140.69 681.725 1137.56 681.725 1137.56 678.147 1134.83 678.147 1134.83 687.853 1137.56 687.853 1137.56 683.882 1140.69 683.882 1140.69 687.853 1143.42 687.853 1143.42 678.147ZM1152.06 683.294 1152.06 683.294C1151.7 682.853 1151.1 682.461 1150.24 682.069 1149.33 681.676 1148.77 681.382 1148.57 681.235 1148.37 681.088 1148.27 680.941 1148.27 680.745 1148.27 680.549 1148.37 680.402 1148.52 680.304 1148.67 680.157 1148.92 680.108 1149.28 680.108 1149.98 680.108 1150.79 680.304 1151.7 680.745L1152.56 678.686C1151.5 678.245 1150.44 678 1149.38 678 1148.22 678 1147.26 678.245 1146.6 678.735 1145.94 679.225 1145.59 679.961 1145.59 680.843 1145.59 681.333 1145.69 681.725 1145.84 682.069 1145.99 682.461 1146.25 682.755 1146.55 683 1146.9 683.294 1147.36 683.588 1148.01 683.882 1148.77 684.176 1149.23 684.373 1149.38 684.471 1149.53 684.569 1149.68 684.716 1149.73 684.814 1149.83 684.912 1149.83 685.01 1149.83 685.157 1149.83 685.353 1149.73 685.549 1149.58 685.647 1149.38 685.794 1149.07 685.843 1148.67 685.843 1148.22 685.843 1147.71 685.794 1147.16 685.647 1146.6 685.5 1146.04 685.304 1145.54 685.059L1145.54 687.412C1145.99 687.608 1146.5 687.755 1146.95 687.853 1147.41 687.951 1147.96 688 1148.62 688 1149.43 688 1150.14 687.853 1150.74 687.608 1151.3 687.363 1151.75 686.971 1152.11 686.529 1152.41 686.039 1152.56 685.5 1152.56 684.912 1152.56 684.275 1152.41 683.735 1152.06 683.294ZM1160.09 680.304 1160.09 680.304C1160.44 680.451 1160.8 680.598 1161.2 680.745L1162.01 678.686C1161 678.245 1159.99 678 1158.88 678 1157.92 678 1157.06 678.196 1156.3 678.588 1155.59 679.029 1155.04 679.618 1154.63 680.353 1154.23 681.137 1154.03 682.02 1154.03 683.049 1154.03 684.618 1154.43 685.892 1155.24 686.725 1156.05 687.559 1157.21 688 1158.72 688 1159.79 688 1160.75 687.804 1161.55 687.461L1161.55 685.255C1161.15 685.402 1160.75 685.549 1160.29 685.696 1159.89 685.794 1159.48 685.843 1159.03 685.843 1157.56 685.843 1156.8 684.912 1156.8 683.049 1156.8 682.167 1157.01 681.431 1157.36 680.941 1157.71 680.402 1158.22 680.157 1158.88 680.157 1159.28 680.157 1159.68 680.206 1160.09 680.304ZM1172.37 678.147 1172.37 678.147 1169.64 678.147 1169.64 681.725 1166.45 681.725 1166.45 678.147 1163.73 678.147 1163.73 687.853 1166.45 687.853 1166.45 683.882 1169.64 683.882 1169.64 687.853 1172.37 687.853 1172.37 678.147ZM1180.65 678.147 1180.65 678.147 1180.65 683.833C1180.65 684.52 1180.5 685.059 1180.25 685.353 1179.99 685.647 1179.59 685.794 1179.03 685.794 1178.53 685.794 1178.12 685.647 1177.87 685.353 1177.62 685.059 1177.47 684.52 1177.47 683.833L1177.47 678.147 1174.74 678.147 1174.74 684.078C1174.74 685.353 1175.14 686.284 1175.85 686.971 1176.61 687.657 1177.62 688 1179.03 688 1180.4 688 1181.46 687.657 1182.22 686.971 1182.97 686.235 1183.33 685.255 1183.33 683.98L1183.33 678.147 1180.65 678.147ZM1192.32 687.853 1192.32 687.853 1192.32 685.745 1188.48 685.745 1188.48 678.147 1185.75 678.147 1185.75 687.853 1192.32 687.853ZM1200 685.745 1200 685.745 1196.77 685.745 1196.77 683.882 1199.8 683.882 1199.8 681.775 1196.77 681.775 1196.77 680.255 1200 680.255 1200 678.147 1194.04 678.147 1194.04 687.853 1200 687.853 1200 685.745Z" fill="#F28E00" fill-rule="evenodd"/><path d="M1109.96 701 1109.96 701 1111.98 693.814 1112.03 693.814C1111.98 694.92 1111.98 695.573 1111.93 695.874 1111.93 696.126 1111.93 696.377 1111.93 696.628L1111.93 701 1114.45 701 1114.45 691 1110.82 691 1108.75 698.085 1108.7 698.085 1106.63 691 1103 691 1103 701 1105.42 701 1105.42 696.678C1105.42 695.975 1105.37 695.02 1105.27 693.814L1105.32 693.814 1107.39 701 1109.96 701ZM1119.6 691 1119.6 691 1116.87 691 1116.87 701 1119.6 701 1119.6 691ZM1126.41 693.211 1126.41 693.211 1128.88 693.211 1128.88 691 1121.26 691 1121.26 693.211 1123.74 693.211 1123.74 701 1126.41 701 1126.41 693.211ZM1135.29 693.211 1135.29 693.211 1137.76 693.211 1137.76 691 1130.14 691 1130.14 693.211 1132.61 693.211 1132.61 701 1135.29 701 1135.29 693.211ZM1153.15 691 1153.15 691 1150.52 691 1149.41 696.025C1149.16 697.281 1149.01 698.186 1148.91 698.688 1148.86 698.286 1148.76 697.683 1148.61 696.879 1148.46 696.075 1148.3 695.422 1148.2 694.819L1147.35 691 1144.82 691 1143.92 694.819C1143.81 695.322 1143.66 695.975 1143.51 696.779 1143.36 697.583 1143.26 698.186 1143.21 698.688 1143.11 698.035 1142.91 697.131 1142.65 696.025L1141.59 691 1138.97 691 1141.44 701 1144.67 701C1145.23 698.387 1145.58 696.879 1145.68 696.528 1145.73 696.176 1145.83 695.774 1145.88 695.322 1145.98 694.869 1146.03 694.518 1146.08 694.216 1146.14 694.568 1146.19 695.02 1146.29 695.573 1146.39 696.126 1146.49 696.477 1146.49 696.628L1147.45 701 1150.68 701 1153.15 691ZM1160.66 698.789 1160.66 698.789 1157.44 698.789 1157.44 696.93 1160.41 696.93 1160.41 694.769 1157.44 694.769 1157.44 693.161 1160.66 693.161 1160.66 691 1154.71 691 1154.71 701 1160.66 701 1160.66 698.789ZM1165.61 691 1165.61 691 1162.88 691 1162.88 701 1165.61 701 1165.61 691ZM1175.24 692.256 1175.24 692.256C1174.39 691.452 1173.13 691 1171.51 691L1168.08 691 1168.08 701 1171.31 701C1172.97 701 1174.29 700.548 1175.19 699.643 1176.1 698.739 1176.56 697.482 1176.56 695.824 1176.56 694.266 1176.15 693.06 1175.24 692.256ZM1173.18 698.085 1173.18 698.085C1172.82 698.538 1172.22 698.789 1171.36 698.789L1170.76 698.789 1170.76 693.211 1171.56 693.211C1172.32 693.211 1172.87 693.412 1173.23 693.864 1173.58 694.317 1173.78 694.97 1173.78 695.874 1173.78 696.879 1173.58 697.583 1173.18 698.085ZM1187 701 1187 701 1183.72 691 1180.09 691 1176.81 701 1179.79 701 1180.29 699.141 1183.57 699.141 1184.02 701 1187 701ZM1180.85 696.93 1180.85 696.93C1181.3 695.372 1181.55 694.317 1181.65 693.764 1181.8 693.261 1181.85 692.859 1181.9 692.608 1181.95 692.859 1182.06 693.312 1182.21 693.864 1182.36 694.467 1182.46 694.92 1182.56 695.271L1183.01 696.93 1180.85 696.93Z" fill="#F28E00" fill-rule="evenodd"/><path d="M1068.68 689.05 1068.68 689.05C1067.47 689.504 1065.83 689.908 1064.03 689.908 1062.17 689.908 1060.53 689.504 1059.32 689.05 1059.16 689 1059 689.151 1059 689.303L1059 699.689C1059 699.79 1059.05 699.891 1059.16 699.941 1060.11 700.345 1061.91 701 1064.03 701 1066.09 701 1067.89 700.345 1068.84 699.891 1068.95 699.891 1069 699.79 1069 699.689L1069 689.303C1069 689.151 1068.84 689 1068.68 689.05Z" fill="#F28E00" fill-rule="evenodd"/><path d="M1082.26 700.95 1082.26 700.95C1083.53 700.496 1085.17 700.092 1086.97 700.092 1088.83 700.092 1090.41 700.496 1091.68 700.95 1091.84 701 1092 700.849 1092 700.697L1092 690.311C1092 690.21 1091.95 690.109 1091.84 690.109 1090.84 689.655 1089.09 689 1086.97 689 1084.91 689 1083.11 689.655 1082.11 690.109 1082.05 690.109 1082 690.21 1082 690.311L1082 700.697C1082 700.849 1082.11 701 1082.26 700.95Z" fill="#F28E00" fill-rule="evenodd"/><path d="M1071.29 700.95 1071.29 700.95C1072.38 700.496 1073.86 700.092 1075.48 700.092 1077.14 700.092 1078.62 700.496 1079.71 700.95 1079.86 701 1080 700.849 1080 700.697L1080 690.311C1080 690.21 1079.95 690.109 1079.86 690.109 1079 689.655 1077.38 689 1075.48 689 1073.62 689 1072 689.655 1071.1 690.109 1071.05 690.109 1071 690.21 1071 690.311L1071 700.697C1071 700.849 1071.14 701 1071.29 700.95Z" fill="#F28E00" fill-rule="evenodd"/><path d="M1068.68 676.05 1068.68 676.05C1067.47 676.504 1065.83 676.908 1064.03 676.908 1062.17 676.908 1060.53 676.504 1059.32 676.05 1059.16 676 1059 676.151 1059 676.303L1059 686.689C1059 686.79 1059.05 686.891 1059.16 686.941 1060.11 687.345 1061.91 688 1064.03 688 1066.09 688 1067.89 687.345 1068.84 686.891 1068.95 686.891 1069 686.79 1069 686.689L1069 676.303C1069 676.151 1068.84 676 1068.68 676.05Z" fill="#F28E00" fill-rule="evenodd"/><path d="M1082.26 687.95 1082.26 687.95C1083.53 687.496 1085.17 687.092 1086.97 687.092 1088.83 687.092 1090.41 687.496 1091.68 687.95 1091.84 688 1092 687.849 1092 687.697L1092 677.311C1092 677.21 1091.95 677.109 1091.84 677.109 1090.84 676.655 1089.09 676 1086.97 676 1084.91 676 1083.11 676.655 1082.11 677.109 1082.05 677.109 1082 677.21 1082 677.311L1082 687.697C1082 687.849 1082.11 688 1082.26 687.95Z" fill="#F28E00" fill-rule="evenodd"/><path d="M1071.29 687.95 1071.29 687.95C1072.38 687.5 1073.86 687.1 1075.48 687.1 1077.14 687.1 1078.62 687.5 1079.71 687.95 1079.86 688 1080 687.85 1080 687.7L1080 667.3C1080 667.2 1079.95 667.15 1079.86 667.1 1079 666.65 1077.38 666 1075.48 666 1073.62 666 1072 666.65 1071.1 667.1 1071.05 667.15 1071 667.25 1071 667.3L1071 687.7C1071 687.85 1071.14 688 1071.29 687.95Z" fill="#F28E00" fill-rule="evenodd"/></g></svg>