<?xml version="1.0" encoding="UTF-8" standalone="no"?>
<!DOCTYPE svg PUBLIC "-//W3C//DTD SVG 1.1//EN" "http://www.w3.org/Graphics/SVG/1.1/DTD/svg11.dtd">
<svg width="100%" height="100%" viewBox="0 0 1280 720" version="1.1" xmlns="http://www.w3.org/2000/svg" xmlns:xlink="http://www.w3.org/1999/xlink" xml:space="preserve" xmlns:serif="http://www.serif.com/" style="fill-rule:evenodd;clip-rule:evenodd;stroke-linejoin:round;stroke-miterlimit:2;">
    <g>
        <g>
            <rect x="0" y="0" width="1280" height="720" style="fill:rgb(0,80,149);fill-opacity:0.8;"/>
            <path d="M836,0L836,194.415C836,214.707 854.596,230 874.491,226.102C992.065,202.912 1131.03,189.518 1280,189.518L1280,0L836,0Z" style="fill:white;"/>
            <path d="M939.318,114.101C936.492,115.212 932.691,116.121 928.5,116.121C924.309,116.121 920.508,115.212 917.682,114.101C917.292,114 917,114.303 917,114.707L917,140.667C917,140.97 917.097,141.172 917.292,141.273C919.534,142.384 923.627,144 928.5,144C933.275,144 937.369,142.384 939.708,141.273C939.903,141.172 940,140.97 940,140.667L940,114.707C940,114.303 939.61,114 939.318,114.101Z" style="fill:rgb(0,80,149);"/>
            <path d="M974.682,143.798C977.508,142.788 981.309,141.778 985.5,141.778C989.691,141.778 993.492,142.788 996.318,143.798C996.61,144 997,143.697 997,143.293L997,117.232C997,117.03 996.903,116.727 996.708,116.727C994.369,115.616 990.275,114 985.5,114C980.725,114 976.534,115.616 974.292,116.727C974.097,116.828 974,117.03 974,117.232L974,143.293C974,143.697 974.292,144 974.682,143.798Z" style="fill:rgb(0,80,149);"/>
            <path d="M945.81,143.798C948.747,142.788 952.595,141.778 956.949,141.778C961.405,141.778 965.253,142.788 968.19,143.798C968.595,144 969,143.697 969,143.293L969,117.232C969,117.03 968.797,116.727 968.595,116.727C966.266,115.616 962.013,114 956.949,114C951.987,114 947.734,115.616 945.405,116.727C945.203,116.828 945,117.03 945,117.232L945,143.293C945,143.697 945.405,144 945.81,143.798Z" style="fill:rgb(0,80,149);"/>
            <path d="M939.318,82.098C936.492,83.172 932.691,84.148 928.5,84.148C924.309,84.148 920.508,83.172 917.682,82.098C917.292,82 917,82.293 917,82.684L917,107.875C917,108.071 917.097,108.266 917.292,108.364C919.534,109.438 923.627,111 928.5,111C933.275,111 937.369,109.438 939.708,108.364C939.903,108.266 940,108.071 940,107.875L940,82.684C940,82.293 939.61,82 939.318,82.098Z" style="fill:rgb(0,80,149);"/>
            <path d="M974.682,110.902C977.508,109.828 981.309,108.949 985.5,108.949C989.691,108.949 993.492,109.828 996.318,110.902C996.61,111 997,110.707 997,110.316L997,85.222C997,84.929 996.903,84.734 996.708,84.636C994.369,83.562 990.275,82 985.5,82C980.725,82 976.534,83.562 974.292,84.636C974.097,84.734 974,84.929 974,85.222L974,110.316C974,110.707 974.292,111 974.682,110.902Z" style="fill:rgb(0,80,149);"/>
            <path d="M945.81,110.9C948.747,109.798 952.595,108.896 956.949,108.896C961.405,108.896 965.253,109.798 968.19,110.9C968.595,111 969,110.699 969,110.299L969,59.306C969,59.006 968.797,58.805 968.595,58.705C966.266,57.603 962.013,56 956.949,56C951.987,56 947.734,57.603 945.405,58.705C945.203,58.805 945,59.006 945,59.306L945,110.299C945,110.699 945.405,111 945.81,110.9Z" style="fill:rgb(0,80,149);"/>
            <path d="M1040.52,85.29L1035.61,85.29L1035.61,91.774L1029.91,91.774L1029.91,85.29L1025,85.29L1025,102.806L1029.91,102.806L1029.91,95.645L1035.61,95.645L1035.61,102.806L1040.52,102.806L1040.52,85.29ZM1059.64,87.323C1058.14,85.774 1055.94,85 1053.13,85C1050.23,85 1048.03,85.774 1046.52,87.323C1045.02,88.871 1044.22,91.097 1044.22,94C1044.22,96.903 1045.02,99.129 1046.52,100.677C1048.03,102.226 1050.23,103 1053.03,103C1055.94,103 1058.14,102.226 1059.64,100.677C1061.14,99.226 1061.84,97 1061.84,94C1061.84,91.097 1061.14,88.774 1059.64,87.323ZM1053.13,88.871C1054.33,88.871 1055.23,89.258 1055.84,90.129C1056.44,91 1056.74,92.258 1056.74,94C1056.74,95.742 1056.44,97 1055.84,97.871C1055.23,98.645 1054.33,99.129 1053.03,99.129C1050.63,99.129 1049.43,97.387 1049.43,94C1049.43,90.613 1050.63,88.871 1053.13,88.871ZM1075.76,89.258C1076.46,89.452 1077.06,89.645 1077.76,90.032L1079.26,86.258C1077.46,85.484 1075.66,85 1073.66,85C1071.85,85 1070.35,85.387 1068.95,86.161C1067.65,86.839 1066.65,87.903 1065.95,89.258C1065.25,90.71 1064.85,92.258 1064.85,94.097C1064.85,97 1065.65,99.226 1067.05,100.677C1068.55,102.226 1070.65,103 1073.36,103C1075.26,103 1076.96,102.71 1078.46,102.032L1078.46,98.065C1077.76,98.355 1076.96,98.645 1076.16,98.839C1075.46,99.032 1074.66,99.129 1073.86,99.129C1071.25,99.129 1069.95,97.484 1069.95,94.097C1069.95,92.452 1070.25,91.194 1070.85,90.323C1071.55,89.355 1072.45,88.871 1073.66,88.871C1074.36,88.871 1075.06,88.968 1075.76,89.258ZM1097.88,85.29L1092.98,85.29L1092.98,91.774L1087.27,91.774L1087.27,85.29L1082.37,85.29L1082.37,102.806L1087.27,102.806L1087.27,95.645L1092.98,95.645L1092.98,102.806L1097.88,102.806L1097.88,85.29ZM1113.5,94.484C1112.9,93.71 1111.8,93.032 1110.3,92.355C1108.6,91.581 1107.59,91.097 1107.29,90.903C1106.89,90.613 1106.69,90.323 1106.69,89.936C1106.69,89.645 1106.89,89.355 1107.19,89.161C1107.39,88.968 1107.89,88.774 1108.5,88.774C1109.8,88.774 1111.2,89.161 1112.9,89.936L1114.4,86.258C1112.5,85.484 1110.6,85 1108.7,85C1106.59,85 1104.89,85.484 1103.69,86.355C1102.49,87.323 1101.89,88.581 1101.89,90.129C1101.89,91 1101.99,91.774 1102.29,92.355C1102.59,93.032 1102.99,93.613 1103.59,94.097C1104.19,94.581 1105.09,95.065 1106.29,95.548C1107.59,96.129 1108.4,96.516 1108.7,96.71C1109,96.903 1109.2,97.097 1109.3,97.29C1109.5,97.387 1109.5,97.677 1109.5,97.871C1109.5,98.258 1109.4,98.548 1109,98.839C1108.7,99.032 1108.2,99.226 1107.39,99.226C1106.59,99.226 1105.69,99.032 1104.69,98.839C1103.59,98.548 1102.69,98.161 1101.69,97.677L1101.69,101.935C1102.59,102.323 1103.49,102.613 1104.29,102.806C1105.09,102.903 1106.09,103 1107.29,103C1108.8,103 1110,102.806 1111.1,102.323C1112.2,101.839 1113,101.161 1113.6,100.387C1114.1,99.516 1114.4,98.548 1114.4,97.484C1114.4,96.323 1114.1,95.355 1113.5,94.484ZM1127.92,89.258C1128.62,89.452 1129.32,89.645 1129.92,90.032L1131.42,86.258C1129.72,85.484 1127.82,85 1125.82,85C1124.11,85 1122.51,85.387 1121.21,86.161C1119.81,86.839 1118.81,87.903 1118.11,89.258C1117.41,90.71 1117.11,92.258 1117.11,94.097C1117.11,97 1117.81,99.226 1119.31,100.677C1120.71,102.226 1122.81,103 1125.51,103C1127.42,103 1129.12,102.71 1130.72,102.032L1130.72,98.065C1129.92,98.355 1129.12,98.645 1128.42,98.839C1127.62,99.032 1126.92,99.129 1126.12,99.129C1123.41,99.129 1122.11,97.484 1122.11,94.097C1122.11,92.452 1122.41,91.194 1123.11,90.323C1123.71,89.355 1124.61,88.871 1125.82,88.871C1126.62,88.871 1127.32,88.968 1127.92,89.258ZM1150.14,85.29L1145.24,85.29L1145.24,91.774L1139.53,91.774L1139.53,85.29L1134.63,85.29L1134.63,102.806L1139.53,102.806L1139.53,95.645L1145.24,95.645L1145.24,102.806L1150.14,102.806L1150.14,85.29ZM1165.06,85.29L1165.06,95.548C1165.06,96.806 1164.86,97.677 1164.36,98.258C1163.96,98.839 1163.26,99.129 1162.26,99.129C1161.26,99.129 1160.55,98.839 1160.05,98.258C1159.65,97.677 1159.35,96.806 1159.35,95.548L1159.35,85.29L1154.45,85.29L1154.45,95.936C1154.45,98.258 1155.15,100 1156.45,101.161C1157.75,102.419 1159.65,103 1162.16,103C1164.66,103 1166.56,102.419 1167.96,101.161C1169.26,99.903 1169.97,98.065 1169.97,95.839L1169.97,85.29L1165.06,85.29ZM1186.18,102.806L1186.18,98.936L1179.18,98.936L1179.18,85.29L1174.27,85.29L1174.27,102.806L1186.18,102.806ZM1200,98.936L1194.19,98.936L1194.19,95.645L1199.6,95.645L1199.6,91.871L1194.19,91.871L1194.19,89.065L1200,89.065L1200,85.29L1189.29,85.29L1189.29,102.806L1200,102.806L1200,98.936Z" style="fill:rgb(0,80,149);"/>
            <path d="M1037.63,126L1041.24,113.072L1041.34,113.072C1041.24,115.061 1041.24,116.254 1041.24,116.751C1041.14,117.249 1041.14,117.746 1041.14,118.144L1041.14,126L1045.65,126L1045.65,108.099L1039.14,108.099L1035.43,120.829L1035.33,120.829L1031.52,108.099L1025,108.099L1025,126L1029.41,126L1029.41,118.243C1029.41,117.05 1029.31,115.26 1029.11,113.072L1029.21,113.072L1032.92,126L1037.63,126ZM1055.08,108.099L1050.17,108.099L1050.17,126L1055.08,126L1055.08,108.099ZM1067.41,112.077L1071.82,112.077L1071.82,108.099L1058.09,108.099L1058.09,112.077L1062.5,112.077L1062.5,126L1067.41,126L1067.41,112.077ZM1083.45,112.077L1087.87,112.077L1087.87,108.099L1074.13,108.099L1074.13,112.077L1078.54,112.077L1078.54,126L1083.45,126L1083.45,112.077ZM1115.74,108.099L1111.03,108.099L1109.02,117.149C1108.52,119.337 1108.22,120.928 1108.12,121.823C1108.02,121.127 1107.82,120.033 1107.52,118.641C1107.32,117.249 1107.02,115.956 1106.72,114.862L1105.21,108.099L1100.7,108.099L1099.09,114.862C1098.79,115.757 1098.59,116.95 1098.29,118.442C1097.99,119.834 1097.79,121.028 1097.69,121.823C1097.59,120.63 1097.29,119.039 1096.79,117.05L1094.78,108.099L1090.07,108.099L1094.58,126L1100.4,126C1101.4,121.326 1102,118.641 1102.2,117.945C1102.3,117.348 1102.5,116.552 1102.6,115.757C1102.8,114.961 1102.91,114.365 1102.91,113.768C1103.01,114.464 1103.21,115.26 1103.31,116.254C1103.51,117.249 1103.61,117.845 1103.71,118.243L1105.51,126L1111.23,126L1115.74,108.099ZM1129.37,122.122L1123.46,122.122L1123.46,118.641L1128.87,118.641L1128.87,114.762L1123.46,114.762L1123.46,111.978L1129.37,111.978L1129.37,108.099L1118.55,108.099L1118.55,126L1129.37,126L1129.37,122.122ZM1138.3,108.099L1133.39,108.099L1133.39,126L1138.3,126L1138.3,108.099ZM1155.74,110.287C1154.14,108.796 1151.93,108.099 1149.03,108.099L1142.71,108.099L1142.71,126L1148.63,126C1151.63,126 1153.94,125.204 1155.64,123.613C1157.25,122.022 1158.15,119.635 1158.15,116.652C1158.15,113.867 1157.35,111.779 1155.74,110.287ZM1152.03,120.729C1151.33,121.624 1150.23,122.022 1148.73,122.022L1147.62,122.022L1147.62,111.978L1149.03,111.978C1150.43,111.978 1151.43,112.376 1152.03,113.171C1152.74,113.967 1153.04,115.16 1153.04,116.851C1153.04,118.641 1152.74,119.934 1152.03,120.729ZM1177,126L1170.98,108L1164.47,108L1158.55,126L1163.97,126L1164.87,122.718L1170.78,122.718L1171.69,126L1177,126ZM1165.87,118.641C1166.67,115.856 1167.07,113.967 1167.37,112.972C1167.58,112.077 1167.68,111.381 1167.78,110.983C1167.88,111.381 1168.08,112.177 1168.28,113.171C1168.58,114.265 1168.78,115.061 1168.98,115.757L1169.78,118.641L1165.87,118.641Z" style="fill:rgb(0,80,149);"/>
            <path d="M1030.61,134.677L1030.61,140C1030.61,141.355 1029.91,142.032 1028.5,142.032C1027.8,142.032 1027.3,141.935 1027,141.548C1026.6,141.258 1026.5,140.677 1026.5,140L1026.5,134.677L1025,134.677L1025,140.097C1025,141.065 1025.3,141.839 1025.9,142.419C1026.5,143 1027.4,143.29 1028.5,143.29C1029.2,143.29 1029.81,143.097 1030.41,142.903C1030.91,142.613 1031.31,142.226 1031.61,141.742C1031.81,141.355 1032.01,140.774 1032.01,140.097L1032.01,134.677L1030.61,134.677ZM1039.92,138.935C1039.92,137.387 1039.12,136.613 1037.51,136.613C1037.01,136.613 1036.61,136.71 1036.21,136.806C1035.91,137 1035.61,137.29 1035.41,137.581L1035.31,137.581L1035.11,136.71L1034.01,136.71L1034.01,143.097L1035.41,143.097L1035.41,139.903C1035.41,139.129 1035.61,138.548 1035.81,138.258C1036.11,137.871 1036.61,137.677 1037.11,137.677C1037.61,137.677 1037.91,137.871 1038.11,138.065C1038.32,138.355 1038.42,138.742 1038.42,139.226L1038.42,143.097L1039.92,143.097L1039.92,138.935ZM1043.22,136.71L1041.72,136.71L1041.72,143.097L1043.22,143.097L1043.22,136.71ZM1041.92,135.548C1042.02,135.742 1042.22,135.742 1042.52,135.742C1042.72,135.742 1042.92,135.742 1043.02,135.548C1043.22,135.452 1043.22,135.258 1043.22,135.065C1043.22,134.774 1043.22,134.581 1043.02,134.484C1042.92,134.29 1042.72,134.29 1042.52,134.29C1042.22,134.29 1042.02,134.29 1041.92,134.484C1041.72,134.581 1041.72,134.774 1041.72,135.065C1041.72,135.258 1041.72,135.452 1041.92,135.548ZM1048.33,143.097L1050.83,136.71L1049.43,136.71L1048.03,140.484C1047.83,141.161 1047.63,141.645 1047.63,141.935L1047.53,141.935C1047.53,141.548 1047.33,141.065 1047.13,140.484L1045.82,136.71L1044.32,136.71L1046.82,143.097L1048.33,143.097ZM1055.94,143.194C1056.24,143.097 1056.64,143 1056.94,142.806L1056.94,141.742C1056.54,141.839 1056.24,142.032 1055.84,142.032C1055.53,142.129 1055.13,142.129 1054.73,142.129C1054.13,142.129 1053.73,142.032 1053.33,141.645C1053.03,141.355 1052.83,140.871 1052.83,140.194L1057.24,140.194L1057.24,139.516C1057.24,138.548 1057.04,137.871 1056.54,137.387C1056.04,136.903 1055.33,136.613 1054.43,136.613C1053.53,136.613 1052.73,136.903 1052.23,137.484C1051.63,138.065 1051.43,138.935 1051.43,140C1051.43,140.968 1051.73,141.839 1052.23,142.419C1052.83,143 1053.63,143.29 1054.73,143.29C1055.13,143.29 1055.53,143.194 1055.94,143.194ZM1055.53,138.065C1055.74,138.355 1055.84,138.742 1055.84,139.226L1052.83,139.226C1052.93,138.742 1053.13,138.355 1053.33,138.065C1053.63,137.774 1054.03,137.677 1054.43,137.677C1054.83,137.677 1055.23,137.774 1055.53,138.065ZM1061.14,136.903C1060.74,137.194 1060.44,137.484 1060.24,137.871L1060.14,137.871L1060.04,136.71L1058.94,136.71L1058.94,143.097L1060.34,143.097L1060.34,139.806C1060.34,139.226 1060.44,138.742 1060.84,138.355C1061.14,138.065 1061.64,137.871 1062.24,137.871C1062.44,137.871 1062.64,137.871 1062.84,137.968L1062.94,136.613L1062.24,136.613C1061.84,136.613 1061.44,136.71 1061.14,136.903ZM1068.65,140.484C1068.45,140.29 1068.35,140.097 1068.05,139.903C1067.85,139.71 1067.45,139.516 1066.85,139.323C1066.25,139.129 1065.75,138.935 1065.65,138.742C1065.45,138.645 1065.35,138.452 1065.35,138.258C1065.35,137.871 1065.65,137.677 1066.45,137.677C1066.95,137.677 1067.55,137.774 1068.25,138.065L1068.65,137.097C1067.95,136.71 1067.25,136.613 1066.45,136.613C1065.65,136.613 1065.05,136.71 1064.65,137.097C1064.14,137.387 1063.94,137.774 1063.94,138.355C1063.94,138.839 1064.04,139.129 1064.34,139.419C1064.65,139.71 1065.15,140 1065.85,140.29C1066.25,140.484 1066.55,140.581 1066.75,140.677C1067.05,140.774 1067.15,140.968 1067.25,141.065C1067.35,141.161 1067.45,141.258 1067.45,141.452C1067.45,141.935 1066.95,142.226 1066.15,142.226C1065.45,142.226 1064.75,142.032 1063.94,141.645L1063.94,142.903C1064.45,143.097 1065.15,143.29 1066.05,143.29C1066.95,143.29 1067.65,143.097 1068.05,142.71C1068.55,142.419 1068.75,141.935 1068.75,141.258C1068.75,140.968 1068.75,140.774 1068.65,140.484ZM1071.75,136.71L1070.25,136.71L1070.25,143.097L1071.75,143.097L1071.75,136.71ZM1070.45,135.548C1070.55,135.742 1070.75,135.742 1071.05,135.742C1071.25,135.742 1071.45,135.742 1071.55,135.548C1071.75,135.452 1071.75,135.258 1071.75,135.065C1071.75,134.774 1071.75,134.581 1071.55,134.484C1071.45,134.29 1071.25,134.29 1071.05,134.29C1070.75,134.29 1070.55,134.29 1070.45,134.484C1070.25,134.581 1070.25,134.774 1070.25,135.065C1070.25,135.258 1070.25,135.452 1070.45,135.548ZM1075.56,141.935C1075.36,141.742 1075.26,141.548 1075.26,141.161L1075.26,137.774L1077.16,137.774L1077.16,136.71L1075.26,136.71L1075.26,135.258L1074.36,135.258L1073.96,136.613L1072.95,137.194L1072.95,137.774L1073.86,137.774L1073.86,141.161C1073.86,142.613 1074.56,143.29 1075.86,143.29C1076.16,143.29 1076.36,143.194 1076.66,143.194C1076.86,143.097 1077.06,143.097 1077.26,143L1077.26,142.032C1076.86,142.129 1076.56,142.129 1076.16,142.129C1075.96,142.129 1075.66,142.032 1075.56,141.935ZM1080.66,143.097L1080.36,143.774C1080.16,144.452 1079.66,144.839 1078.96,144.839L1078.26,144.839L1078.26,145.903C1078.56,145.903 1078.86,146 1079.16,146C1080.36,146 1081.16,145.323 1081.76,143.968L1084.57,136.71L1083.07,136.71C1082.17,139.323 1081.56,140.774 1081.46,141.065C1081.46,141.355 1081.36,141.645 1081.26,141.839C1081.16,141.355 1081.06,140.871 1080.86,140.387L1079.46,136.71L1077.96,136.71L1080.66,143.097ZM1093.48,137.484C1092.88,136.903 1092.18,136.613 1091.18,136.613C1090.17,136.613 1089.47,136.903 1088.87,137.484C1088.27,138.065 1088.07,138.839 1088.07,139.903C1088.07,140.581 1088.17,141.161 1088.47,141.645C1088.67,142.226 1089.07,142.613 1089.57,142.806C1089.97,143.097 1090.57,143.29 1091.18,143.29C1092.18,143.29 1092.98,143 1093.48,142.323C1094.08,141.742 1094.28,140.968 1094.28,139.903C1094.28,138.935 1094.08,138.065 1093.48,137.484ZM1089.87,138.258C1090.17,137.871 1090.57,137.677 1091.18,137.677C1092.28,137.677 1092.88,138.452 1092.88,139.903C1092.88,141.355 1092.28,142.129 1091.18,142.129C1090.07,142.129 1089.47,141.355 1089.47,139.903C1089.47,139.226 1089.67,138.645 1089.87,138.258ZM1099.18,136.71L1097.58,136.71L1097.58,136.323C1097.58,135.935 1097.68,135.645 1097.78,135.452C1097.98,135.258 1098.18,135.161 1098.48,135.161C1098.88,135.161 1099.18,135.161 1099.49,135.355L1099.89,134.29C1099.39,134.097 1098.88,134 1098.38,134C1097.68,134 1097.08,134.194 1096.78,134.581C1096.38,134.968 1096.18,135.548 1096.18,136.323L1096.18,136.71L1095.08,137.097L1095.08,137.774L1096.18,137.774L1096.18,143.097L1097.58,143.097L1097.58,137.774L1099.18,137.774L1099.18,136.71ZM1110.3,143.097L1107.09,134.581L1105.49,134.581L1102.19,143.097L1103.69,143.097L1104.59,140.774L1107.89,140.774L1108.8,143.097L1110.3,143.097ZM1104.99,139.613L1105.79,137.387C1105.99,136.806 1106.19,136.323 1106.29,135.839C1106.29,135.935 1106.39,136.226 1106.49,136.516C1106.59,136.903 1106.69,137.097 1106.69,137.29L1107.59,139.613L1104.99,139.613ZM1116.8,142.323C1117.31,141.742 1117.51,140.968 1117.51,139.903C1117.51,138.839 1117.31,138.065 1116.8,137.484C1116.4,136.903 1115.7,136.613 1114.9,136.613C1114,136.613 1113.4,136.903 1112.9,137.581C1112.8,137.097 1112.7,136.806 1112.7,136.71L1111.5,136.71L1111.5,146L1112.9,146L1112.9,143.387C1112.9,143.194 1112.9,142.903 1112.8,142.419L1112.9,142.419C1113.4,143 1114,143.29 1114.9,143.29C1115.7,143.29 1116.4,143 1116.8,142.323ZM1115.7,138.258C1116,138.645 1116.1,139.226 1116.1,139.903C1116.1,140.581 1116,141.161 1115.7,141.548C1115.4,141.935 1115.1,142.129 1114.6,142.129C1114,142.129 1113.6,141.935 1113.3,141.645C1113.1,141.258 1112.9,140.677 1112.9,139.903L1112.9,139.71C1112.9,139.032 1113.1,138.548 1113.3,138.161C1113.6,137.871 1114,137.677 1114.5,137.677C1115.1,137.677 1115.4,137.871 1115.7,138.258ZM1124.51,142.323C1124.91,141.742 1125.21,140.968 1125.21,139.903C1125.21,138.839 1125.01,138.065 1124.51,137.484C1124.01,136.903 1123.41,136.613 1122.61,136.613C1121.71,136.613 1121.01,136.903 1120.61,137.581L1120.51,137.581C1120.41,137.097 1120.31,136.806 1120.31,136.71L1119.21,136.71L1119.21,146L1120.61,146L1120.61,143.387C1120.61,143.194 1120.61,142.903 1120.51,142.419L1120.61,142.419C1121.01,143 1121.71,143.29 1122.51,143.29C1123.41,143.29 1124.01,143 1124.51,142.323ZM1123.31,138.258C1123.61,138.645 1123.71,139.226 1123.71,139.903C1123.71,140.581 1123.61,141.161 1123.31,141.548C1123.11,141.935 1122.71,142.129 1122.21,142.129C1121.61,142.129 1121.21,141.935 1121.01,141.645C1120.71,141.258 1120.61,140.677 1120.61,139.903L1120.61,139.71C1120.61,139.032 1120.71,138.548 1121.01,138.161C1121.21,137.871 1121.61,137.677 1122.21,137.677C1122.71,137.677 1123.11,137.871 1123.31,138.258ZM1128.22,134.097L1126.82,134.097L1126.82,143.097L1128.22,143.097L1128.22,134.097ZM1131.62,136.71L1130.22,136.71L1130.22,143.097L1131.62,143.097L1131.62,136.71ZM1130.32,135.548C1130.52,135.742 1130.72,135.742 1130.92,135.742C1131.22,135.742 1131.42,135.742 1131.52,135.548C1131.62,135.452 1131.72,135.258 1131.72,135.065C1131.72,134.774 1131.62,134.581 1131.52,134.484C1131.42,134.29 1131.22,134.29 1130.92,134.29C1130.72,134.29 1130.52,134.29 1130.32,134.484C1130.22,134.581 1130.12,134.774 1130.12,135.065C1130.12,135.258 1130.22,135.452 1130.32,135.548ZM1137.73,143.194C1138.03,143.097 1138.43,143 1138.73,142.806L1138.73,141.742C1138.33,141.839 1138.03,142.032 1137.63,142.032C1137.33,142.129 1136.93,142.129 1136.63,142.129C1136.03,142.129 1135.53,142.032 1135.23,141.645C1134.83,141.355 1134.73,140.871 1134.63,140.194L1139.13,140.194L1139.13,139.516C1139.13,138.548 1138.83,137.871 1138.33,137.387C1137.83,136.903 1137.13,136.613 1136.23,136.613C1135.33,136.613 1134.53,136.903 1134.02,137.484C1133.52,138.065 1133.22,138.935 1133.22,140C1133.22,140.968 1133.52,141.839 1134.12,142.419C1134.63,143 1135.53,143.29 1136.53,143.29C1136.93,143.29 1137.33,143.194 1137.73,143.194ZM1137.33,138.065C1137.53,138.355 1137.73,138.742 1137.73,139.226L1134.73,139.226C1134.73,138.742 1134.93,138.355 1135.23,138.065C1135.43,137.774 1135.83,137.677 1136.23,137.677C1136.73,137.677 1137.03,137.774 1137.33,138.065ZM1145.04,142.323L1145.34,143.097L1146.44,143.097L1146.44,134.097L1145.04,134.097L1145.04,136.419C1145.04,136.71 1145.04,137.097 1145.14,137.581L1145.04,137.581C1144.54,136.903 1143.94,136.613 1143.03,136.613C1142.23,136.613 1141.53,136.903 1141.03,137.484C1140.63,138.065 1140.33,138.839 1140.33,139.903C1140.33,140.968 1140.63,141.839 1141.03,142.419C1141.53,143 1142.13,143.29 1143.03,143.29C1143.84,143.29 1144.54,142.903 1145.04,142.323ZM1142.23,141.548C1141.93,141.258 1141.83,140.677 1141.83,140C1141.83,139.226 1141.93,138.645 1142.23,138.258C1142.53,137.871 1142.83,137.677 1143.34,137.677C1143.94,137.677 1144.34,137.871 1144.64,138.258C1144.94,138.548 1145.04,139.129 1145.04,139.903L1145.04,140.097C1145.04,140.871 1144.94,141.355 1144.64,141.645C1144.44,142.032 1143.94,142.129 1143.44,142.129C1142.83,142.129 1142.43,141.935 1142.23,141.548ZM1156.25,139.806C1156.15,139.516 1155.95,139.323 1155.65,139.032C1155.35,138.839 1154.85,138.645 1154.25,138.355C1153.65,138.161 1153.25,137.968 1153.05,137.774C1152.85,137.677 1152.65,137.484 1152.55,137.387C1152.45,137.194 1152.45,137 1152.45,136.806C1152.45,136.419 1152.55,136.226 1152.75,136.032C1153.05,135.839 1153.35,135.742 1153.85,135.742C1154.45,135.742 1155.15,135.839 1155.95,136.226L1156.35,135.065C1155.55,134.677 1154.75,134.581 1153.85,134.581C1152.95,134.581 1152.25,134.774 1151.74,135.161C1151.24,135.548 1150.94,136.129 1150.94,136.806C1150.94,137.387 1151.14,137.871 1151.44,138.258C1151.84,138.645 1152.35,139.032 1153.15,139.323C1153.95,139.613 1154.45,139.903 1154.75,140.097C1154.95,140.29 1155.05,140.581 1155.05,140.968C1155.05,141.258 1154.95,141.548 1154.65,141.742C1154.45,141.935 1153.95,142.032 1153.45,142.032C1153.05,142.032 1152.65,142.032 1152.15,141.935C1151.74,141.839 1151.24,141.645 1150.84,141.452L1150.84,142.806C1151.54,143.097 1152.35,143.29 1153.35,143.29C1154.35,143.29 1155.05,143 1155.65,142.613C1156.25,142.129 1156.55,141.548 1156.55,140.871C1156.55,140.484 1156.45,140.097 1156.25,139.806ZM1161.86,143.194C1162.16,143.097 1162.46,143 1162.66,142.806L1162.66,141.645C1162.16,141.935 1161.56,142.129 1160.86,142.129C1160.35,142.129 1159.95,141.935 1159.65,141.548C1159.35,141.161 1159.15,140.677 1159.15,139.903C1159.15,138.452 1159.75,137.774 1160.96,137.774C1161.36,137.774 1161.76,137.871 1162.36,138.065L1162.86,137C1162.26,136.71 1161.66,136.613 1160.96,136.613C1159.95,136.613 1159.15,136.903 1158.55,137.484C1158.05,138.065 1157.75,138.839 1157.75,140C1157.75,141.065 1158.05,141.839 1158.55,142.419C1159.05,143 1159.85,143.29 1160.86,143.29C1161.26,143.29 1161.56,143.194 1161.86,143.194ZM1165.56,136.71L1164.16,136.71L1164.16,143.097L1165.56,143.097L1165.56,136.71ZM1164.26,135.548C1164.46,135.742 1164.66,135.742 1164.86,135.742C1165.16,135.742 1165.36,135.742 1165.46,135.548C1165.56,135.452 1165.66,135.258 1165.66,135.065C1165.66,134.774 1165.56,134.581 1165.46,134.484C1165.36,134.29 1165.16,134.29 1164.86,134.29C1164.66,134.29 1164.46,134.29 1164.26,134.484C1164.16,134.581 1164.06,134.774 1164.06,135.065C1164.06,135.258 1164.16,135.452 1164.26,135.548ZM1171.67,143.194C1171.97,143.097 1172.37,143 1172.67,142.806L1172.67,141.742C1172.27,141.839 1171.97,142.032 1171.57,142.032C1171.27,142.129 1170.87,142.129 1170.57,142.129C1169.97,142.129 1169.47,142.032 1169.16,141.645C1168.76,141.355 1168.66,140.871 1168.56,140.194L1173.07,140.194L1173.07,139.516C1173.07,138.548 1172.77,137.871 1172.27,137.387C1171.77,136.903 1171.07,136.613 1170.17,136.613C1169.26,136.613 1168.46,136.903 1167.96,137.484C1167.46,138.065 1167.16,138.935 1167.16,140C1167.16,140.968 1167.46,141.839 1168.06,142.419C1168.56,143 1169.47,143.29 1170.47,143.29C1170.87,143.29 1171.27,143.194 1171.67,143.194ZM1171.27,138.065C1171.47,138.355 1171.67,138.742 1171.67,139.226L1168.66,139.226C1168.66,138.742 1168.86,138.355 1169.16,138.065C1169.36,137.774 1169.77,137.677 1170.17,137.677C1170.67,137.677 1170.97,137.774 1171.27,138.065ZM1180.48,138.935C1180.48,137.387 1179.68,136.613 1178.07,136.613C1177.67,136.613 1177.27,136.71 1176.87,136.806C1176.47,137 1176.27,137.29 1176.07,137.581L1175.97,137.581L1175.77,136.71L1174.67,136.71L1174.67,143.097L1176.07,143.097L1176.07,139.903C1176.07,139.129 1176.17,138.548 1176.47,138.258C1176.77,137.871 1177.17,137.677 1177.77,137.677C1178.28,137.677 1178.58,137.871 1178.78,138.065C1178.98,138.355 1179.08,138.742 1179.08,139.226L1179.08,143.097L1180.48,143.097L1180.48,138.935ZM1186.18,143.194C1186.48,143.097 1186.68,143 1186.99,142.806L1186.99,141.645C1186.38,141.935 1185.78,142.129 1185.18,142.129C1184.68,142.129 1184.18,141.935 1183.98,141.548C1183.68,141.161 1183.48,140.677 1183.48,139.903C1183.48,138.452 1184.08,137.774 1185.18,137.774C1185.58,137.774 1186.08,137.871 1186.68,138.065L1187.09,137C1186.58,136.71 1185.98,136.613 1185.28,136.613C1184.18,136.613 1183.38,136.903 1182.88,137.484C1182.28,138.065 1182.08,138.839 1182.08,140C1182.08,141.065 1182.28,141.839 1182.88,142.419C1183.38,143 1184.08,143.29 1185.08,143.29C1185.48,143.29 1185.88,143.194 1186.18,143.194ZM1192.59,143.194C1192.89,143.097 1193.29,143 1193.59,142.806L1193.59,141.742C1193.19,141.839 1192.79,142.032 1192.49,142.032C1192.19,142.129 1191.79,142.129 1191.39,142.129C1190.79,142.129 1190.39,142.032 1189.99,141.645C1189.69,141.355 1189.49,140.871 1189.49,140.194L1193.89,140.194L1193.89,139.516C1193.89,138.548 1193.69,137.871 1193.19,137.387C1192.69,136.903 1191.99,136.613 1191.09,136.613C1190.09,136.613 1189.39,136.903 1188.89,137.484C1188.29,138.065 1188.09,138.935 1188.09,140C1188.09,140.968 1188.39,141.839 1188.89,142.419C1189.49,143 1190.29,143.29 1191.39,143.29C1191.79,143.29 1192.19,143.194 1192.59,143.194ZM1192.09,138.065C1192.39,138.355 1192.49,138.742 1192.49,139.226L1189.49,139.226C1189.59,138.742 1189.69,138.355 1189.99,138.065C1190.29,137.774 1190.59,137.677 1191.09,137.677C1191.49,137.677 1191.89,137.774 1192.09,138.065ZM1199.9,140.484C1199.7,140.29 1199.6,140.097 1199.3,139.903C1199.1,139.71 1198.7,139.516 1198.1,139.323C1197.5,139.129 1197,138.935 1196.8,138.742C1196.7,138.645 1196.6,138.452 1196.6,138.258C1196.6,137.871 1196.9,137.677 1197.7,137.677C1198.2,137.677 1198.8,137.774 1199.5,138.065L1199.9,137.097C1199.2,136.71 1198.5,136.613 1197.7,136.613C1196.9,136.613 1196.3,136.71 1195.9,137.097C1195.39,137.387 1195.19,137.774 1195.19,138.355C1195.19,138.839 1195.29,139.129 1195.59,139.419C1195.8,139.71 1196.4,140 1197.1,140.29C1197.5,140.484 1197.8,140.581 1198,140.677C1198.3,140.774 1198.4,140.968 1198.5,141.065C1198.6,141.161 1198.7,141.258 1198.7,141.452C1198.7,141.935 1198.2,142.226 1197.4,142.226C1196.7,142.226 1196,142.032 1195.19,141.645L1195.19,142.903C1195.7,143.097 1196.4,143.29 1197.3,143.29C1198.2,143.29 1198.9,143.097 1199.3,142.71C1199.8,142.419 1200,141.935 1200,141.258C1200,140.968 1200,140.774 1199.9,140.484Z" style="fill:rgb(0,80,149);"/>
            <path d="M1280,573C1125.63,573 982.067,587.449 861.794,612.233C846.798,615.344 836,628.689 836,644.042L836,720L1280,720L1280,573Z" style="fill:white;"/>
            <g transform="matrix(1,0,0,1,1058.62,652)">
                <text x="0px" y="0px" style="font-family:'Arial-BoldMT', 'Arial', sans-serif;font-weight:700;font-size:17px;fill:rgb(0,80,149);">hs</text>
            </g>
            <g transform="matrix(1,0,0,1,1078.62,652)">
                <text x="0px" y="0px" style="font-family:'Arial-BoldMT', 'Arial', sans-serif;font-weight:700;font-size:17px;fill:rgb(0,80,149);">-</text>
            </g>
            <g transform="matrix(1,0,0,1,1084.12,652)">
                <text x="0px" y="0px" style="font-family:'Arial-BoldMT', 'Arial', sans-serif;font-weight:700;font-size:17px;fill:rgb(0,80,149);">mittweida.de</text>
            </g>
        </g>
    </g>
</svg>
