<svg width="1280" height="720" xmlns="http://www.w3.org/2000/svg" xmlns:xlink="http://www.w3.org/1999/xlink" overflow="hidden"><defs><clipPath id="clip0"><rect x="0" y="0" width="1280" height="720"/></clipPath></defs><g clip-path="url(#clip0)"><rect x="0" y="0" width="1280" height="720" fill="#FFFFFF"/><text fill="#005095" font-family="Open Sans,Open Sans_MSFontService,sans-serif" font-weight="700" font-size="9" transform="translate(900.554 699)">INGENIEURWISSENSCHAFTEN</text><path d="M1048.5 667.5 1048.5 701.516" stroke="#005095" stroke-width="0.666667" stroke-miterlimit="8" fill="none" fill-rule="evenodd"/><path d="M1111.64 678.147 1111.64 678.147 1108.91 678.147 1108.91 681.725 1105.73 681.725 1105.73 678.147 1103 678.147 1103 687.853 1105.73 687.853 1105.73 683.882 1108.91 683.882 1108.91 687.853 1111.64 687.853 1111.64 678.147ZM1122.2 679.275 1122.2 679.275C1121.39 678.392 1120.18 678 1118.56 678 1116.99 678 1115.73 678.392 1114.92 679.275 1114.06 680.108 1113.66 681.333 1113.66 683 1113.66 684.618 1114.06 685.843 1114.92 686.725 1115.78 687.559 1116.99 688 1118.56 688 1120.13 688 1121.34 687.559 1122.2 686.725 1123.01 685.892 1123.41 684.618 1123.41 683 1123.41 681.333 1123.01 680.108 1122.2 679.275ZM1118.56 680.157 1118.56 680.157C1119.22 680.157 1119.72 680.353 1120.08 680.843 1120.43 681.284 1120.58 682.02 1120.58 683 1120.58 683.98 1120.43 684.667 1120.08 685.108 1119.72 685.598 1119.22 685.794 1118.56 685.794 1117.2 685.794 1116.54 684.863 1116.54 683 1116.54 681.088 1117.2 680.157 1118.56 680.157ZM1131.14 680.304 1131.14 680.304C1131.49 680.451 1131.85 680.598 1132.25 680.745L1133.06 678.686C1132.1 678.245 1131.04 678 1129.98 678 1128.97 678 1128.11 678.196 1127.35 678.588 1126.64 679.029 1126.09 679.618 1125.68 680.353 1125.28 681.137 1125.08 682.02 1125.08 683.049 1125.08 684.618 1125.48 685.892 1126.29 686.725 1127.1 687.559 1128.26 688 1129.78 688 1130.84 688 1131.8 687.804 1132.66 687.461L1132.66 685.255C1132.2 685.402 1131.8 685.549 1131.39 685.696 1130.94 685.794 1130.53 685.843 1130.08 685.843 1128.61 685.843 1127.91 684.912 1127.91 683.049 1127.91 682.167 1128.06 681.431 1128.41 680.941 1128.77 680.402 1129.27 680.157 1129.93 680.157 1130.38 680.157 1130.74 680.206 1131.14 680.304ZM1143.42 678.147 1143.42 678.147 1140.69 678.147 1140.69 681.725 1137.56 681.725 1137.56 678.147 1134.83 678.147 1134.83 687.853 1137.56 687.853 1137.56 683.882 1140.69 683.882 1140.69 687.853 1143.42 687.853 1143.42 678.147ZM1152.06 683.294 1152.06 683.294C1151.7 682.853 1151.1 682.461 1150.24 682.069 1149.33 681.676 1148.77 681.382 1148.57 681.235 1148.37 681.088 1148.27 680.941 1148.27 680.745 1148.27 680.549 1148.37 680.402 1148.52 680.304 1148.67 680.157 1148.92 680.108 1149.28 680.108 1149.98 680.108 1150.79 680.304 1151.7 680.745L1152.56 678.686C1151.5 678.245 1150.44 678 1149.38 678 1148.22 678 1147.26 678.245 1146.6 678.735 1145.94 679.225 1145.59 679.961 1145.59 680.843 1145.59 681.333 1145.69 681.725 1145.84 682.069 1145.99 682.461 1146.25 682.755 1146.55 683 1146.9 683.294 1147.36 683.588 1148.01 683.882 1148.77 684.176 1149.23 684.373 1149.38 684.471 1149.53 684.569 1149.68 684.716 1149.73 684.814 1149.83 684.912 1149.83 685.01 1149.83 685.157 1149.83 685.353 1149.73 685.549 1149.58 685.647 1149.38 685.794 1149.07 685.843 1148.67 685.843 1148.22 685.843 1147.71 685.794 1147.16 685.647 1146.6 685.5 1146.04 685.304 1145.54 685.059L1145.54 687.412C1145.99 687.608 1146.5 687.755 1146.95 687.853 1147.41 687.951 1147.96 688 1148.62 688 1149.43 688 1150.14 687.853 1150.74 687.608 1151.3 687.363 1151.75 686.971 1152.11 686.529 1152.41 686.039 1152.56 685.5 1152.56 684.912 1152.56 684.275 1152.41 683.735 1152.06 683.294ZM1160.09 680.304 1160.09 680.304C1160.44 680.451 1160.8 680.598 1161.2 680.745L1162.01 678.686C1161 678.245 1159.99 678 1158.88 678 1157.92 678 1157.06 678.196 1156.3 678.588 1155.59 679.029 1155.04 679.618 1154.63 680.353 1154.23 681.137 1154.03 682.02 1154.03 683.049 1154.03 684.618 1154.43 685.892 1155.24 686.725 1156.05 687.559 1157.21 688 1158.72 688 1159.79 688 1160.75 687.804 1161.55 687.461L1161.55 685.255C1161.15 685.402 1160.75 685.549 1160.29 685.696 1159.89 685.794 1159.48 685.843 1159.03 685.843 1157.56 685.843 1156.8 684.912 1156.8 683.049 1156.8 682.167 1157.01 681.431 1157.36 680.941 1157.71 680.402 1158.22 680.157 1158.88 680.157 1159.28 680.157 1159.68 680.206 1160.09 680.304ZM1172.37 678.147 1172.37 678.147 1169.64 678.147 1169.64 681.725 1166.45 681.725 1166.45 678.147 1163.73 678.147 1163.73 687.853 1166.45 687.853 1166.45 683.882 1169.64 683.882 1169.64 687.853 1172.37 687.853 1172.37 678.147ZM1180.65 678.147 1180.65 678.147 1180.65 683.833C1180.65 684.52 1180.5 685.059 1180.25 685.353 1179.99 685.647 1179.59 685.794 1179.03 685.794 1178.53 685.794 1178.12 685.647 1177.87 685.353 1177.62 685.059 1177.47 684.52 1177.47 683.833L1177.47 678.147 1174.74 678.147 1174.74 684.078C1174.74 685.353 1175.14 686.284 1175.85 686.971 1176.61 687.657 1177.62 688 1179.03 688 1180.4 688 1181.46 687.657 1182.22 686.971 1182.97 686.235 1183.33 685.255 1183.33 683.98L1183.33 678.147 1180.65 678.147ZM1192.32 687.853 1192.32 687.853 1192.32 685.745 1188.48 685.745 1188.48 678.147 1185.75 678.147 1185.75 687.853 1192.32 687.853ZM1200 685.745 1200 685.745 1196.77 685.745 1196.77 683.882 1199.8 683.882 1199.8 681.775 1196.77 681.775 1196.77 680.255 1200 680.255 1200 678.147 1194.04 678.147 1194.04 687.853 1200 687.853 1200 685.745Z" fill="#005095" fill-rule="evenodd"/><path d="M1109.96 701 1109.96 701 1111.98 693.814 1112.03 693.814C1111.98 694.92 1111.98 695.573 1111.93 695.874 1111.93 696.126 1111.93 696.377 1111.93 696.628L1111.93 701 1114.45 701 1114.45 691 1110.82 691 1108.75 698.085 1108.7 698.085 1106.63 691 1103 691 1103 701 1105.42 701 1105.42 696.678C1105.42 695.975 1105.37 695.02 1105.27 693.814L1105.32 693.814 1107.39 701 1109.96 701ZM1119.6 691 1119.6 691 1116.87 691 1116.87 701 1119.6 701 1119.6 691ZM1126.41 693.211 1126.41 693.211 1128.88 693.211 1128.88 691 1121.26 691 1121.26 693.211 1123.74 693.211 1123.74 701 1126.41 701 1126.41 693.211ZM1135.29 693.211 1135.29 693.211 1137.76 693.211 1137.76 691 1130.14 691 1130.14 693.211 1132.61 693.211 1132.61 701 1135.29 701 1135.29 693.211ZM1153.15 691 1153.15 691 1150.52 691 1149.41 696.025C1149.16 697.281 1149.01 698.186 1148.91 698.688 1148.86 698.286 1148.76 697.683 1148.61 696.879 1148.46 696.075 1148.3 695.422 1148.2 694.819L1147.35 691 1144.82 691 1143.92 694.819C1143.81 695.322 1143.66 695.975 1143.51 696.779 1143.36 697.583 1143.26 698.186 1143.21 698.688 1143.11 698.035 1142.91 697.131 1142.65 696.025L1141.59 691 1138.97 691 1141.44 701 1144.67 701C1145.23 698.387 1145.58 696.879 1145.68 696.528 1145.73 696.176 1145.83 695.774 1145.88 695.322 1145.98 694.869 1146.03 694.518 1146.08 694.216 1146.14 694.568 1146.19 695.02 1146.29 695.573 1146.39 696.126 1146.49 696.477 1146.49 696.628L1147.45 701 1150.68 701 1153.15 691ZM1160.66 698.789 1160.66 698.789 1157.44 698.789 1157.44 696.93 1160.41 696.93 1160.41 694.769 1157.44 694.769 1157.44 693.161 1160.66 693.161 1160.66 691 1154.71 691 1154.71 701 1160.66 701 1160.66 698.789ZM1165.61 691 1165.61 691 1162.88 691 1162.88 701 1165.61 701 1165.61 691ZM1175.24 692.256 1175.24 692.256C1174.39 691.452 1173.13 691 1171.51 691L1168.08 691 1168.08 701 1171.31 701C1172.97 701 1174.29 700.548 1175.19 699.643 1176.1 698.739 1176.56 697.482 1176.56 695.824 1176.56 694.266 1176.15 693.06 1175.24 692.256ZM1173.18 698.085 1173.18 698.085C1172.82 698.538 1172.22 698.789 1171.36 698.789L1170.76 698.789 1170.76 693.211 1171.56 693.211C1172.32 693.211 1172.87 693.412 1173.23 693.864 1173.58 694.317 1173.78 694.97 1173.78 695.874 1173.78 696.879 1173.58 697.583 1173.18 698.085ZM1187 701 1187 701 1183.72 691 1180.09 691 1176.81 701 1179.79 701 1180.29 699.141 1183.57 699.141 1184.02 701 1187 701ZM1180.85 696.93 1180.85 696.93C1181.3 695.372 1181.55 694.317 1181.65 693.764 1181.8 693.261 1181.85 692.859 1181.9 692.608 1181.95 692.859 1182.06 693.312 1182.21 693.864 1182.36 694.467 1182.46 694.92 1182.56 695.271L1183.01 696.93 1180.85 696.93Z" fill="#005095" fill-rule="evenodd"/><path d="M1068.68 689.05 1068.68 689.05C1067.47 689.504 1065.83 689.908 1064.03 689.908 1062.17 689.908 1060.53 689.504 1059.32 689.05 1059.16 689 1059 689.151 1059 689.303L1059 699.689C1059 699.79 1059.05 699.891 1059.16 699.941 1060.11 700.345 1061.91 701 1064.03 701 1066.09 701 1067.89 700.345 1068.84 699.891 1068.95 699.891 1069 699.79 1069 699.689L1069 689.303C1069 689.151 1068.84 689 1068.68 689.05Z" fill="#005095" fill-rule="evenodd"/><path d="M1082.26 700.95 1082.26 700.95C1083.53 700.496 1085.17 700.092 1086.97 700.092 1088.83 700.092 1090.41 700.496 1091.68 700.95 1091.84 701 1092 700.849 1092 700.697L1092 690.311C1092 690.21 1091.95 690.109 1091.84 690.109 1090.84 689.655 1089.09 689 1086.97 689 1084.91 689 1083.11 689.655 1082.11 690.109 1082.05 690.109 1082 690.21 1082 690.311L1082 700.697C1082 700.849 1082.11 701 1082.26 700.95Z" fill="#005095" fill-rule="evenodd"/><path d="M1071.29 700.95 1071.29 700.95C1072.38 700.496 1073.86 700.092 1075.48 700.092 1077.14 700.092 1078.62 700.496 1079.71 700.95 1079.86 701 1080 700.849 1080 700.697L1080 690.311C1080 690.21 1079.95 690.109 1079.86 690.109 1079 689.655 1077.38 689 1075.48 689 1073.62 689 1072 689.655 1071.1 690.109 1071.05 690.109 1071 690.21 1071 690.311L1071 700.697C1071 700.849 1071.14 701 1071.29 700.95Z" fill="#005095" fill-rule="evenodd"/><path d="M1068.68 676.05 1068.68 676.05C1067.47 676.504 1065.83 676.908 1064.03 676.908 1062.17 676.908 1060.53 676.504 1059.32 676.05 1059.16 676 1059 676.151 1059 676.303L1059 686.689C1059 686.79 1059.05 686.891 1059.16 686.941 1060.11 687.345 1061.91 688 1064.03 688 1066.09 688 1067.89 687.345 1068.84 686.891 1068.95 686.891 1069 686.79 1069 686.689L1069 676.303C1069 676.151 1068.84 676 1068.68 676.05Z" fill="#005095" fill-rule="evenodd"/><path d="M1082.26 687.95 1082.26 687.95C1083.53 687.496 1085.17 687.092 1086.97 687.092 1088.83 687.092 1090.41 687.496 1091.68 687.95 1091.84 688 1092 687.849 1092 687.697L1092 677.311C1092 677.21 1091.95 677.109 1091.84 677.109 1090.84 676.655 1089.09 676 1086.97 676 1084.91 676 1083.11 676.655 1082.11 677.109 1082.05 677.109 1082 677.21 1082 677.311L1082 687.697C1082 687.849 1082.11 688 1082.26 687.95Z" fill="#005095" fill-rule="evenodd"/><path d="M1071.29 687.95 1071.29 687.95C1072.38 687.5 1073.86 687.1 1075.48 687.1 1077.14 687.1 1078.62 687.5 1079.71 687.95 1079.86 688 1080 687.85 1080 687.7L1080 667.3C1080 667.2 1079.95 667.15 1079.86 667.1 1079 666.65 1077.38 666 1075.48 666 1073.62 666 1072 666.65 1071.1 667.1 1071.05 667.15 1071 667.25 1071 667.3L1071 687.7C1071 687.85 1071.14 688 1071.29 687.95Z" fill="#005095" fill-rule="evenodd"/><rect x="0" y="0" width="1280" height="720" fill="#FFFFFF"/><rect x="0" y="145" width="1281" height="495" fill="#E3E3E3"/><path d="M836 0 836 0 836 194.415C836 214.707 854.596 230 874.491 226.102 992.065 202.912 1131.03 189.518 1280 189.518L1280 0 836 0Z" fill="#005095" fill-rule="evenodd"/><path d="M939.318 114.101 939.318 114.101C936.492 115.212 932.691 116.121 928.5 116.121 924.309 116.121 920.508 115.212 917.682 114.101 917.292 114 917 114.303 917 114.707L917 140.667C917 140.97 917.097 141.172 917.292 141.273 919.534 142.384 923.627 144 928.5 144 933.275 144 937.369 142.384 939.708 141.273 939.903 141.172 940 140.97 940 140.667L940 114.707C940 114.303 939.61 114 939.318 114.101Z" fill="#FFFFFF" fill-rule="evenodd"/><path d="M974.682 143.798 974.682 143.798C977.508 142.788 981.309 141.778 985.5 141.778 989.691 141.778 993.492 142.788 996.318 143.798 996.61 144 997 143.697 997 143.293L997 117.232C997 117.03 996.903 116.727 996.708 116.727 994.369 115.616 990.275 114 985.5 114 980.725 114 976.534 115.616 974.292 116.727 974.097 116.828 974 117.03 974 117.232L974 143.293C974 143.697 974.292 144 974.682 143.798Z" fill="#FFFFFF" fill-rule="evenodd"/><path d="M945.81 143.798 945.81 143.798C948.747 142.788 952.595 141.778 956.949 141.778 961.405 141.778 965.253 142.788 968.19 143.798 968.595 144 969 143.697 969 143.293L969 117.232C969 117.03 968.797 116.727 968.595 116.727 966.266 115.616 962.013 114 956.949 114 951.987 114 947.734 115.616 945.405 116.727 945.203 116.828 945 117.03 945 117.232L945 143.293C945 143.697 945.405 144 945.81 143.798Z" fill="#FFFFFF" fill-rule="evenodd"/><path d="M939.318 82.0976 939.318 82.0976C936.492 83.1717 932.691 84.1481 928.5 84.1481 924.309 84.1481 920.508 83.1717 917.682 82.0976 917.292 82 917 82.2929 917 82.6835L917 107.875C917 108.071 917.097 108.266 917.292 108.364 919.534 109.438 923.627 111 928.5 111 933.275 111 937.369 109.438 939.708 108.364 939.903 108.266 940 108.071 940 107.875L940 82.6835C940 82.2929 939.61 82 939.318 82.0976Z" fill="#FFFFFF" fill-rule="evenodd"/><path d="M974.682 110.902 974.682 110.902C977.508 109.828 981.309 108.949 985.5 108.949 989.691 108.949 993.492 109.828 996.318 110.902 996.61 111 997 110.707 997 110.316L997 85.2222C997 84.9293 996.903 84.734 996.708 84.6364 994.369 83.5623 990.275 82 985.5 82 980.725 82 976.534 83.5623 974.292 84.6364 974.097 84.734 974 84.9293 974 85.2222L974 110.316C974 110.707 974.292 111 974.682 110.902Z" fill="#FFFFFF" fill-rule="evenodd"/><path d="M945.81 110.9 945.81 110.9C948.747 109.798 952.595 108.896 956.949 108.896 961.405 108.896 965.253 109.798 968.19 110.9 968.595 111 969 110.699 969 110.299L969 59.306C969 59.0055 968.797 58.8051 968.595 58.7049 966.266 57.6029 962.013 56 956.949 56 951.987 56 947.734 57.6029 945.405 58.7049 945.203 58.8051 945 59.0055 945 59.306L945 110.299C945 110.699 945.405 111 945.81 110.9Z" fill="#FFFFFF" fill-rule="evenodd"/><path d="M1040.52 85.2903 1040.52 85.2903 1035.61 85.2903 1035.61 91.7742 1029.91 91.7742 1029.91 85.2903 1025 85.2903 1025 102.806 1029.91 102.806 1029.91 95.6452 1035.61 95.6452 1035.61 102.806 1040.52 102.806 1040.52 85.2903ZM1059.64 87.3226 1059.64 87.3226C1058.14 85.7742 1055.94 85 1053.13 85 1050.23 85 1048.03 85.7742 1046.52 87.3226 1045.02 88.871 1044.22 91.0968 1044.22 94 1044.22 96.9032 1045.02 99.129 1046.52 100.677 1048.03 102.226 1050.23 103 1053.03 103 1055.94 103 1058.14 102.226 1059.64 100.774 1061.14 99.2258 1061.84 97 1061.84 94 1061.84 91.0968 1061.14 88.7742 1059.64 87.3226ZM1053.13 88.871 1053.13 88.871C1054.33 88.871 1055.23 89.2581 1055.84 90.129 1056.44 91 1056.74 92.2581 1056.74 94 1056.74 95.7419 1056.44 97 1055.84 97.871 1055.23 98.6452 1054.33 99.129 1053.03 99.129 1050.63 99.129 1049.43 97.3871 1049.43 94 1049.43 90.6129 1050.63 88.871 1053.13 88.871ZM1075.76 89.2581 1075.76 89.2581C1076.46 89.4516 1077.06 89.6452 1077.76 90.0323L1079.26 86.2581C1077.46 85.4839 1075.66 85 1073.66 85 1071.85 85 1070.35 85.3871 1068.95 86.1613 1067.65 86.8387 1066.65 87.9032 1065.95 89.3548 1065.25 90.7097 1064.85 92.2581 1064.85 94.0968 1064.85 97 1065.65 99.2258 1067.05 100.774 1068.55 102.226 1070.65 103 1073.36 103 1075.26 103 1076.96 102.71 1078.46 102.032L1078.46 98.0645C1077.76 98.3548 1076.96 98.6452 1076.16 98.8387 1075.46 99.0323 1074.66 99.129 1073.86 99.129 1071.25 99.129 1069.95 97.4839 1069.95 94.0968 1069.95 92.4516 1070.25 91.1936 1070.85 90.3226 1071.55 89.3548 1072.45 88.871 1073.66 88.871 1074.36 88.871 1075.06 89.0645 1075.76 89.2581ZM1097.88 85.2903 1097.88 85.2903 1092.98 85.2903 1092.98 91.7742 1087.27 91.7742 1087.27 85.2903 1082.37 85.2903 1082.37 102.806 1087.27 102.806 1087.27 95.6452 1092.98 95.6452 1092.98 102.806 1097.88 102.806 1097.88 85.2903ZM1113.5 94.4839 1113.5 94.4839C1112.9 93.7097 1111.8 93.0323 1110.3 92.3548 1108.6 91.6774 1107.59 91.0968 1107.29 90.9032 1106.89 90.6129 1106.69 90.3226 1106.69 89.9355 1106.69 89.6452 1106.89 89.3548 1107.19 89.1613 1107.39 88.9677 1107.89 88.7742 1108.5 88.7742 1109.8 88.7742 1111.2 89.1613 1112.9 89.9355L1114.4 86.2581C1112.5 85.4839 1110.6 85 1108.7 85 1106.59 85 1104.89 85.4839 1103.69 86.3548 1102.49 87.3226 1101.89 88.5806 1101.89 90.129 1101.89 91 1101.99 91.7742 1102.29 92.3548 1102.59 93.0323 1102.99 93.6129 1103.59 94.0968 1104.19 94.5806 1105.09 95.0645 1106.29 95.5484 1107.59 96.129 1108.4 96.5161 1108.7 96.7097 1109 96.9032 1109.2 97.0968 1109.3 97.2903 1109.5 97.3871 1109.5 97.6774 1109.5 97.871 1109.5 98.2581 1109.4 98.5484 1109 98.8387 1108.7 99.0323 1108.2 99.2258 1107.39 99.2258 1106.59 99.2258 1105.69 99.0323 1104.69 98.8387 1103.59 98.5484 1102.69 98.1613 1101.69 97.6774L1101.69 101.935C1102.59 102.323 1103.49 102.613 1104.29 102.806 1105.09 102.903 1106.09 103 1107.29 103 1108.8 103 1110 102.806 1111.1 102.323 1112.2 101.839 1113 101.161 1113.6 100.387 1114.1 99.5161 1114.4 98.5484 1114.4 97.4839 1114.4 96.3226 1114.1 95.3548 1113.5 94.4839ZM1127.92 89.2581 1127.92 89.2581C1128.62 89.4516 1129.32 89.6452 1129.92 90.0323L1131.42 86.2581C1129.72 85.4839 1127.82 85 1125.82 85 1124.11 85 1122.51 85.3871 1121.21 86.1613 1119.81 86.8387 1118.81 87.9032 1118.11 89.3548 1117.41 90.7097 1117.11 92.2581 1117.11 94.0968 1117.11 97 1117.81 99.2258 1119.31 100.774 1120.71 102.226 1122.81 103 1125.51 103 1127.42 103 1129.12 102.71 1130.72 102.032L1130.72 98.0645C1129.92 98.3548 1129.12 98.6452 1128.42 98.8387 1127.62 99.0323 1126.92 99.129 1126.12 99.129 1123.41 99.129 1122.11 97.4839 1122.11 94.0968 1122.11 92.4516 1122.41 91.1936 1123.11 90.3226 1123.71 89.3548 1124.61 88.871 1125.82 88.871 1126.62 88.871 1127.32 89.0645 1127.92 89.2581ZM1150.14 85.2903 1150.14 85.2903 1145.24 85.2903 1145.24 91.7742 1139.53 91.7742 1139.53 85.2903 1134.63 85.2903 1134.63 102.806 1139.53 102.806 1139.53 95.6452 1145.24 95.6452 1145.24 102.806 1150.14 102.806 1150.14 85.2903ZM1165.06 85.2903 1165.06 85.2903 1165.06 95.5484C1165.06 96.8064 1164.86 97.6774 1164.36 98.2581 1163.96 98.8387 1163.26 99.129 1162.26 99.129 1161.26 99.129 1160.55 98.8387 1160.05 98.2581 1159.65 97.6774 1159.35 96.8064 1159.35 95.5484L1159.35 85.2903 1154.45 85.2903 1154.45 95.9355C1154.45 98.2581 1155.15 100 1156.45 101.161 1157.75 102.419 1159.65 103 1162.16 103 1164.66 103 1166.56 102.419 1167.96 101.161 1169.26 99.9032 1169.97 98.0645 1169.97 95.8387L1169.97 85.2903 1165.06 85.2903ZM1186.18 102.806 1186.18 102.806 1186.18 98.9355 1179.18 98.9355 1179.18 85.2903 1174.27 85.2903 1174.27 102.806 1186.18 102.806ZM1200 98.9355 1200 98.9355 1194.19 98.9355 1194.19 95.6452 1199.6 95.6452 1199.6 91.871 1194.19 91.871 1194.19 89.0645 1200 89.0645 1200 85.2903 1189.29 85.2903 1189.29 102.806 1200 102.806 1200 98.9355Z" fill="#FFFFFF" fill-rule="evenodd"/><path d="M1037.63 126 1037.63 126 1041.24 113.072 1041.34 113.072C1041.24 115.061 1041.24 116.254 1041.24 116.751 1041.14 117.249 1041.14 117.746 1041.14 118.144L1041.14 126 1045.65 126 1045.65 108.099 1039.14 108.099 1035.43 120.829 1035.33 120.829 1031.52 108.099 1025 108.099 1025 126 1029.41 126 1029.41 118.243C1029.41 117.05 1029.31 115.26 1029.11 113.072L1029.21 113.072 1032.92 126 1037.63 126ZM1055.08 108.099 1055.08 108.099 1050.17 108.099 1050.17 126 1055.08 126 1055.08 108.099ZM1067.41 112.077 1067.41 112.077 1071.82 112.077 1071.82 108.099 1058.09 108.099 1058.09 112.077 1062.5 112.077 1062.5 126 1067.41 126 1067.41 112.077ZM1083.45 112.077 1083.45 112.077 1087.87 112.077 1087.87 108.099 1074.13 108.099 1074.13 112.077 1078.54 112.077 1078.54 126 1083.45 126 1083.45 112.077ZM1115.74 108.099 1115.74 108.099 1111.03 108.099 1109.02 117.149C1108.52 119.337 1108.22 120.928 1108.12 121.823 1108.02 121.127 1107.82 120.033 1107.52 118.641 1107.32 117.249 1107.02 115.956 1106.72 114.862L1105.21 108.099 1100.7 108.099 1099.09 114.862C1098.79 115.757 1098.59 116.95 1098.29 118.442 1097.99 119.834 1097.79 121.028 1097.69 121.823 1097.59 120.63 1097.29 119.039 1096.79 117.05L1094.78 108.099 1090.07 108.099 1094.58 126 1100.4 126C1101.4 121.326 1102 118.641 1102.2 117.945 1102.3 117.348 1102.5 116.552 1102.6 115.757 1102.8 114.961 1102.91 114.365 1102.91 113.768 1103.01 114.464 1103.21 115.26 1103.31 116.254 1103.51 117.249 1103.61 117.845 1103.71 118.243L1105.51 126 1111.23 126 1115.74 108.099ZM1129.37 122.122 1129.37 122.122 1123.46 122.122 1123.46 118.641 1128.87 118.641 1128.87 114.762 1123.46 114.762 1123.46 111.978 1129.37 111.978 1129.37 108.099 1118.55 108.099 1118.55 126 1129.37 126 1129.37 122.122ZM1138.3 108.099 1138.3 108.099 1133.39 108.099 1133.39 126 1138.3 126 1138.3 108.099ZM1155.74 110.287 1155.74 110.287C1154.14 108.796 1151.93 108.099 1149.03 108.099L1142.71 108.099 1142.71 126 1148.63 126C1151.63 126 1153.94 125.204 1155.64 123.613 1157.25 122.022 1158.15 119.635 1158.15 116.652 1158.15 113.867 1157.35 111.779 1155.74 110.287ZM1152.03 120.729 1152.03 120.729C1151.33 121.624 1150.23 122.022 1148.73 122.022L1147.62 122.022 1147.62 111.978 1149.03 111.978C1150.43 111.978 1151.43 112.376 1152.03 113.171 1152.74 113.967 1153.04 115.16 1153.04 116.851 1153.04 118.641 1152.74 119.934 1152.03 120.729ZM1177 126 1177 126 1170.98 108 1164.47 108 1158.55 126 1163.97 126 1164.87 122.718 1170.78 122.718 1171.69 126 1177 126ZM1165.87 118.641 1165.87 118.641C1166.67 115.856 1167.07 113.967 1167.37 112.972 1167.58 112.077 1167.68 111.381 1167.78 110.983 1167.88 111.381 1168.08 112.177 1168.28 113.171 1168.58 114.265 1168.78 115.061 1168.98 115.757L1169.78 118.641 1165.87 118.641Z" fill="#FFFFFF" fill-rule="evenodd"/><path d="M1030.61 134.677 1030.61 134.677 1030.61 140C1030.61 141.355 1029.91 142.032 1028.5 142.032 1027.8 142.032 1027.3 141.935 1027 141.548 1026.6 141.258 1026.5 140.677 1026.5 140L1026.5 134.677 1025 134.677 1025 140.097C1025 141.065 1025.3 141.839 1025.9 142.419 1026.5 143 1027.4 143.29 1028.5 143.29 1029.2 143.29 1029.81 143.097 1030.41 142.903 1030.91 142.613 1031.31 142.226 1031.61 141.742 1031.81 141.355 1032.01 140.774 1032.01 140.097L1032.01 134.677 1030.61 134.677ZM1039.92 138.935 1039.92 138.935C1039.92 137.387 1039.12 136.613 1037.51 136.613 1037.01 136.613 1036.61 136.71 1036.21 136.806 1035.91 137 1035.61 137.29 1035.41 137.581L1035.31 137.581 1035.11 136.71 1034.01 136.71 1034.01 143.097 1035.41 143.097 1035.41 139.903C1035.41 139.129 1035.61 138.548 1035.81 138.258 1036.11 137.871 1036.61 137.677 1037.21 137.677 1037.61 137.677 1037.91 137.871 1038.11 138.065 1038.32 138.355 1038.42 138.742 1038.42 139.226L1038.42 143.097 1039.92 143.097 1039.92 138.935ZM1043.22 136.71 1043.22 136.71 1041.72 136.71 1041.72 143.097 1043.22 143.097 1043.22 136.71ZM1041.92 135.548 1041.92 135.548C1042.02 135.742 1042.22 135.742 1042.52 135.742 1042.72 135.742 1042.92 135.742 1043.02 135.548 1043.22 135.452 1043.22 135.258 1043.22 135.065 1043.22 134.774 1043.22 134.581 1043.02 134.484 1042.92 134.29 1042.72 134.29 1042.52 134.29 1042.22 134.29 1042.02 134.29 1041.92 134.484 1041.72 134.581 1041.72 134.774 1041.72 135.065 1041.72 135.258 1041.72 135.452 1041.92 135.548ZM1048.33 143.097 1048.33 143.097 1050.83 136.71 1049.33 136.71 1048.03 140.484C1047.83 141.161 1047.63 141.645 1047.63 141.935L1047.53 141.935C1047.53 141.548 1047.33 141.065 1047.13 140.484L1045.82 136.71 1044.32 136.71 1046.82 143.097 1048.33 143.097ZM1055.94 143.194 1055.94 143.194C1056.24 143.097 1056.64 143 1056.94 142.806L1056.94 141.742C1056.54 141.839 1056.24 142.032 1055.84 142.032 1055.53 142.129 1055.13 142.129 1054.73 142.129 1054.13 142.129 1053.73 142.032 1053.33 141.645 1053.03 141.355 1052.83 140.871 1052.83 140.194L1057.24 140.194 1057.24 139.516C1057.24 138.548 1057.04 137.871 1056.54 137.387 1056.04 136.903 1055.33 136.613 1054.43 136.613 1053.53 136.613 1052.73 136.903 1052.23 137.484 1051.63 138.065 1051.43 138.935 1051.43 140 1051.43 140.968 1051.73 141.839 1052.23 142.419 1052.83 143 1053.63 143.29 1054.73 143.29 1055.13 143.29 1055.53 143.194 1055.94 143.194ZM1055.53 138.065 1055.53 138.065C1055.74 138.355 1055.84 138.742 1055.84 139.226L1052.83 139.226C1052.93 138.742 1053.13 138.355 1053.33 138.065 1053.63 137.774 1053.93 137.677 1054.43 137.677 1054.83 137.677 1055.23 137.774 1055.53 138.065ZM1061.14 136.903 1061.14 136.903C1060.74 137.194 1060.44 137.484 1060.24 137.871L1060.14 137.871 1060.04 136.71 1058.94 136.71 1058.94 143.097 1060.34 143.097 1060.34 139.806C1060.34 139.226 1060.44 138.742 1060.84 138.355 1061.14 138.065 1061.64 137.871 1062.24 137.871 1062.44 137.871 1062.64 137.871 1062.84 137.968L1062.94 136.71C1062.74 136.613 1062.54 136.613 1062.24 136.613 1061.84 136.613 1061.44 136.71 1061.14 136.903ZM1068.65 140.484 1068.65 140.484C1068.45 140.29 1068.35 140.097 1068.05 139.903 1067.85 139.71 1067.45 139.516 1066.85 139.323 1066.25 139.129 1065.75 138.935 1065.65 138.742 1065.45 138.645 1065.35 138.452 1065.35 138.258 1065.35 137.871 1065.65 137.677 1066.45 137.677 1066.95 137.677 1067.55 137.774 1068.25 138.065L1068.65 137.097C1067.95 136.71 1067.25 136.613 1066.45 136.613 1065.65 136.613 1065.05 136.71 1064.65 137.097 1064.14 137.387 1063.94 137.774 1063.94 138.355 1063.94 138.839 1064.04 139.129 1064.34 139.419 1064.55 139.71 1065.15 140 1065.85 140.29 1066.25 140.484 1066.55 140.581 1066.75 140.677 1067.05 140.774 1067.15 140.968 1067.25 141.065 1067.35 141.161 1067.45 141.258 1067.45 141.452 1067.45 141.935 1066.95 142.226 1066.15 142.226 1065.45 142.226 1064.75 142.032 1063.94 141.645L1063.94 142.903C1064.45 143.097 1065.15 143.29 1066.05 143.29 1066.95 143.29 1067.65 143.097 1068.05 142.71 1068.55 142.419 1068.75 141.935 1068.75 141.258 1068.75 140.968 1068.75 140.774 1068.65 140.484ZM1071.75 136.71 1071.75 136.71 1070.25 136.71 1070.25 143.097 1071.75 143.097 1071.75 136.71ZM1070.45 135.548 1070.45 135.548C1070.55 135.742 1070.75 135.742 1071.05 135.742 1071.25 135.742 1071.45 135.742 1071.55 135.548 1071.75 135.452 1071.75 135.258 1071.75 135.065 1071.75 134.774 1071.75 134.581 1071.55 134.484 1071.45 134.29 1071.25 134.29 1071.05 134.29 1070.75 134.29 1070.55 134.29 1070.45 134.484 1070.25 134.581 1070.25 134.774 1070.25 135.065 1070.25 135.258 1070.25 135.452 1070.45 135.548ZM1075.56 141.935 1075.56 141.935C1075.36 141.742 1075.26 141.548 1075.26 141.161L1075.26 137.774 1077.16 137.774 1077.16 136.71 1075.26 136.71 1075.26 135.258 1074.36 135.258 1073.96 136.613 1072.95 137.194 1072.95 137.774 1073.86 137.774 1073.86 141.161C1073.86 142.613 1074.56 143.29 1075.86 143.29 1076.16 143.29 1076.36 143.194 1076.66 143.194 1076.86 143.097 1077.06 143.097 1077.26 143L1077.26 142.032C1076.86 142.129 1076.56 142.129 1076.16 142.129 1075.96 142.129 1075.66 142.032 1075.56 141.935ZM1080.66 143.097 1080.66 143.097 1080.36 143.774C1080.16 144.452 1079.66 144.839 1078.96 144.839 1078.66 144.839 1078.46 144.839 1078.26 144.839L1078.26 145.903C1078.56 145.903 1078.86 146 1079.16 146 1080.36 146 1081.16 145.323 1081.76 143.968L1084.57 136.71 1083.07 136.71C1082.17 139.323 1081.56 140.774 1081.46 141.065 1081.46 141.355 1081.36 141.645 1081.26 141.839L1081.26 141.839C1081.16 141.355 1081.06 140.871 1080.86 140.387L1079.46 136.71 1077.96 136.71 1080.66 143.097ZM1093.48 137.484 1093.48 137.484C1092.88 136.903 1092.18 136.613 1091.18 136.613 1090.17 136.613 1089.37 136.903 1088.87 137.484 1088.27 138.065 1088.07 138.839 1088.07 139.903 1088.07 140.581 1088.17 141.161 1088.47 141.645 1088.67 142.226 1089.07 142.613 1089.57 142.806 1089.97 143.097 1090.57 143.29 1091.18 143.29 1092.18 143.29 1092.98 143 1093.48 142.323 1094.08 141.742 1094.28 140.968 1094.28 139.903 1094.28 138.935 1094.08 138.065 1093.48 137.484ZM1089.87 138.258 1089.87 138.258C1090.17 137.871 1090.57 137.677 1091.18 137.677 1092.28 137.677 1092.88 138.452 1092.88 139.903 1092.88 141.355 1092.28 142.129 1091.18 142.129 1090.07 142.129 1089.47 141.355 1089.47 139.903 1089.47 139.226 1089.67 138.645 1089.87 138.258ZM1099.18 136.71 1099.18 136.71 1097.58 136.71 1097.58 136.323C1097.58 135.935 1097.68 135.645 1097.78 135.452 1097.98 135.258 1098.18 135.161 1098.48 135.161 1098.88 135.161 1099.18 135.161 1099.49 135.355L1099.89 134.29C1099.39 134.097 1098.88 134 1098.38 134 1097.68 134 1097.08 134.194 1096.78 134.581 1096.38 134.968 1096.18 135.548 1096.18 136.323L1096.18 136.71 1095.08 137.097 1095.08 137.774 1096.18 137.774 1096.18 143.097 1097.58 143.097 1097.58 137.774 1099.18 137.774 1099.18 136.71ZM1110.3 143.097 1110.3 143.097 1107.09 134.581 1105.49 134.581 1102.19 143.097 1103.69 143.097 1104.59 140.774 1107.89 140.774 1108.8 143.097 1110.3 143.097ZM1104.99 139.613 1104.99 139.613 1105.79 137.387C1105.99 136.806 1106.19 136.323 1106.29 135.839 1106.29 135.935 1106.39 136.226 1106.49 136.516 1106.59 136.903 1106.69 137.097 1106.69 137.29L1107.59 139.613 1104.99 139.613ZM1116.8 142.323 1116.8 142.323C1117.31 141.742 1117.51 140.968 1117.51 139.903 1117.51 138.839 1117.31 138.065 1116.8 137.484 1116.4 136.903 1115.7 136.613 1114.9 136.613 1114 136.613 1113.4 136.903 1112.9 137.581L1112.9 137.581C1112.8 137.097 1112.7 136.806 1112.7 136.71L1111.5 136.71 1111.5 146 1112.9 146 1112.9 143.387C1112.9 143.194 1112.9 142.903 1112.8 142.419L1112.9 142.419C1113.4 143 1114 143.29 1114.9 143.29 1115.7 143.29 1116.4 143 1116.8 142.323ZM1115.7 138.258 1115.7 138.258C1116 138.645 1116.1 139.226 1116.1 139.903 1116.1 140.581 1116 141.161 1115.7 141.548 1115.4 141.935 1115.1 142.129 1114.6 142.129 1114 142.129 1113.6 141.935 1113.3 141.645 1113.1 141.258 1112.9 140.677 1112.9 139.903L1112.9 139.71C1112.9 139.032 1113.1 138.548 1113.3 138.161 1113.6 137.871 1114 137.677 1114.5 137.677 1115.1 137.677 1115.4 137.871 1115.7 138.258ZM1124.51 142.323 1124.51 142.323C1124.91 141.742 1125.21 140.968 1125.21 139.903 1125.21 138.839 1125.01 138.065 1124.51 137.484 1124.01 136.903 1123.41 136.613 1122.61 136.613 1121.71 136.613 1121.01 136.903 1120.61 137.581L1120.51 137.581C1120.41 137.097 1120.31 136.806 1120.31 136.71L1119.21 136.71 1119.21 146 1120.61 146 1120.61 143.387C1120.61 143.194 1120.61 142.903 1120.51 142.419L1120.61 142.419C1121.01 143 1121.71 143.29 1122.51 143.29 1123.41 143.29 1124.01 143 1124.51 142.323ZM1123.31 138.258 1123.31 138.258C1123.61 138.645 1123.71 139.226 1123.71 139.903 1123.71 140.581 1123.61 141.161 1123.31 141.548 1123.11 141.935 1122.71 142.129 1122.21 142.129 1121.61 142.129 1121.21 141.935 1121.01 141.645 1120.71 141.258 1120.61 140.677 1120.61 139.903L1120.61 139.71C1120.61 139.032 1120.71 138.548 1121.01 138.161 1121.21 137.871 1121.61 137.677 1122.21 137.677 1122.71 137.677 1123.11 137.871 1123.31 138.258ZM1128.22 134.097 1128.22 134.097 1126.82 134.097 1126.82 143.097 1128.22 143.097 1128.22 134.097ZM1131.62 136.71 1131.62 136.71 1130.22 136.71 1130.22 143.097 1131.62 143.097 1131.62 136.71ZM1130.32 135.548 1130.32 135.548C1130.52 135.742 1130.72 135.742 1130.92 135.742 1131.22 135.742 1131.42 135.742 1131.52 135.548 1131.62 135.452 1131.72 135.258 1131.72 135.065 1131.72 134.774 1131.62 134.581 1131.52 134.484 1131.42 134.29 1131.22 134.29 1130.92 134.29 1130.72 134.29 1130.52 134.29 1130.32 134.484 1130.22 134.581 1130.12 134.774 1130.12 135.065 1130.12 135.258 1130.22 135.452 1130.32 135.548ZM1137.73 143.194 1137.73 143.194C1138.03 143.097 1138.43 143 1138.73 142.806L1138.73 141.742C1138.33 141.839 1138.03 142.032 1137.63 142.032 1137.33 142.129 1136.93 142.129 1136.63 142.129 1136.03 142.129 1135.53 142.032 1135.23 141.645 1134.83 141.355 1134.73 140.871 1134.63 140.194L1139.13 140.194 1139.13 139.516C1139.13 138.548 1138.83 137.871 1138.33 137.387 1137.83 136.903 1137.13 136.613 1136.23 136.613 1135.33 136.613 1134.53 136.903 1134.02 137.484 1133.52 138.065 1133.22 138.935 1133.22 140 1133.22 140.968 1133.52 141.839 1134.12 142.419 1134.63 143 1135.53 143.29 1136.53 143.29 1136.93 143.29 1137.33 143.194 1137.73 143.194ZM1137.33 138.065 1137.33 138.065C1137.53 138.355 1137.73 138.742 1137.73 139.226L1134.73 139.226C1134.73 138.742 1134.93 138.355 1135.23 138.065 1135.43 137.774 1135.83 137.677 1136.23 137.677 1136.73 137.677 1137.03 137.774 1137.33 138.065ZM1145.04 142.323 1145.04 142.323 1145.04 142.323 1145.34 143.097 1146.44 143.097 1146.44 134.097 1145.04 134.097 1145.04 136.419C1145.04 136.71 1145.04 137.097 1145.14 137.581L1145.04 137.581C1144.54 136.903 1143.94 136.613 1143.03 136.613 1142.23 136.613 1141.53 136.903 1141.03 137.484 1140.63 138.065 1140.33 138.839 1140.33 139.903 1140.33 140.968 1140.63 141.839 1141.03 142.419 1141.53 143 1142.13 143.29 1143.03 143.29 1143.84 143.29 1144.54 142.903 1145.04 142.323ZM1142.23 141.548 1142.23 141.548C1141.93 141.258 1141.83 140.677 1141.83 140 1141.83 139.226 1141.93 138.645 1142.23 138.258 1142.53 137.871 1142.83 137.677 1143.34 137.677 1143.94 137.677 1144.34 137.871 1144.64 138.258 1144.94 138.548 1145.04 139.129 1145.04 139.903L1145.04 140.097C1145.04 140.871 1144.94 141.355 1144.64 141.645 1144.44 142.032 1143.94 142.129 1143.44 142.129 1142.83 142.129 1142.43 141.935 1142.23 141.548ZM1156.25 139.806 1156.25 139.806C1156.15 139.516 1155.95 139.323 1155.65 139.032 1155.35 138.839 1154.85 138.645 1154.25 138.355 1153.65 138.161 1153.25 137.968 1153.05 137.774 1152.85 137.677 1152.65 137.484 1152.55 137.387 1152.45 137.194 1152.45 137 1152.45 136.806 1152.45 136.419 1152.55 136.226 1152.75 136.032 1153.05 135.839 1153.35 135.742 1153.85 135.742 1154.45 135.742 1155.15 135.839 1155.95 136.226L1156.35 135.065C1155.55 134.677 1154.75 134.581 1153.85 134.581 1152.95 134.581 1152.25 134.774 1151.74 135.161 1151.24 135.548 1150.94 136.129 1150.94 136.806 1150.94 137.387 1151.14 137.871 1151.44 138.258 1151.84 138.645 1152.35 139.032 1153.15 139.323 1153.95 139.613 1154.45 139.903 1154.75 140.097 1154.95 140.29 1155.05 140.581 1155.05 140.968 1155.05 141.258 1154.95 141.548 1154.65 141.742 1154.45 141.935 1153.95 142.032 1153.45 142.032 1153.05 142.032 1152.65 142.032 1152.15 141.935 1151.74 141.839 1151.24 141.645 1150.84 141.452L1150.84 142.806C1151.54 143.097 1152.35 143.29 1153.35 143.29 1154.35 143.29 1155.05 143 1155.65 142.613 1156.25 142.129 1156.55 141.548 1156.55 140.871 1156.55 140.484 1156.45 140.097 1156.25 139.806ZM1161.86 143.194 1161.86 143.194C1162.16 143.097 1162.46 143 1162.66 142.806L1162.66 141.645C1162.16 141.935 1161.56 142.129 1160.86 142.129 1160.35 142.129 1159.95 141.935 1159.65 141.548 1159.35 141.161 1159.15 140.677 1159.15 139.903 1159.15 138.452 1159.75 137.774 1160.96 137.774 1161.36 137.774 1161.76 137.871 1162.36 138.065L1162.86 137C1162.26 136.71 1161.66 136.613 1160.96 136.613 1159.95 136.613 1159.15 136.903 1158.55 137.484 1158.05 138.065 1157.75 138.839 1157.75 140 1157.75 141.065 1158.05 141.839 1158.55 142.419 1159.05 143 1159.85 143.29 1160.86 143.29 1161.26 143.29 1161.56 143.194 1161.86 143.194ZM1165.56 136.71 1165.56 136.71 1164.16 136.71 1164.16 143.097 1165.56 143.097 1165.56 136.71ZM1164.26 135.548 1164.26 135.548C1164.46 135.742 1164.66 135.742 1164.86 135.742 1165.16 135.742 1165.36 135.742 1165.46 135.548 1165.56 135.452 1165.66 135.258 1165.66 135.065 1165.66 134.774 1165.56 134.581 1165.46 134.484 1165.36 134.29 1165.16 134.29 1164.86 134.29 1164.66 134.29 1164.46 134.29 1164.26 134.484 1164.16 134.581 1164.06 134.774 1164.06 135.065 1164.06 135.258 1164.16 135.452 1164.26 135.548ZM1171.67 143.194 1171.67 143.194C1171.97 143.097 1172.37 143 1172.67 142.806L1172.67 141.742C1172.27 141.839 1171.97 142.032 1171.57 142.032 1171.27 142.129 1170.87 142.129 1170.57 142.129 1169.97 142.129 1169.47 142.032 1169.16 141.645 1168.76 141.355 1168.66 140.871 1168.56 140.194L1173.07 140.194 1173.07 139.516C1173.07 138.548 1172.77 137.871 1172.27 137.387 1171.77 136.903 1171.07 136.613 1170.17 136.613 1169.26 136.613 1168.46 136.903 1167.96 137.484 1167.46 138.065 1167.16 138.935 1167.16 140 1167.16 140.968 1167.46 141.839 1168.06 142.419 1168.56 143 1169.47 143.29 1170.47 143.29 1170.87 143.29 1171.27 143.194 1171.67 143.194ZM1171.27 138.065 1171.27 138.065C1171.47 138.355 1171.67 138.742 1171.67 139.226L1168.66 139.226C1168.66 138.742 1168.86 138.355 1169.16 138.065 1169.36 137.774 1169.77 137.677 1170.17 137.677 1170.67 137.677 1170.97 137.774 1171.27 138.065ZM1180.48 138.935 1180.48 138.935C1180.48 137.387 1179.68 136.613 1178.07 136.613 1177.67 136.613 1177.27 136.71 1176.87 136.806 1176.47 137 1176.27 137.29 1176.07 137.581L1175.97 137.581 1175.77 136.71 1174.67 136.71 1174.67 143.097 1176.07 143.097 1176.07 139.903C1176.07 139.129 1176.17 138.548 1176.47 138.258 1176.77 137.871 1177.17 137.677 1177.77 137.677 1178.28 137.677 1178.58 137.871 1178.78 138.065 1178.98 138.355 1179.08 138.742 1179.08 139.226L1179.08 143.097 1180.48 143.097 1180.48 138.935ZM1186.18 143.194 1186.18 143.194C1186.48 143.097 1186.68 143 1186.99 142.806L1186.99 141.645C1186.38 141.935 1185.78 142.129 1185.18 142.129 1184.68 142.129 1184.18 141.935 1183.98 141.548 1183.68 141.161 1183.48 140.677 1183.48 139.903 1183.48 138.452 1184.08 137.774 1185.18 137.774 1185.58 137.774 1186.08 137.871 1186.68 138.065L1187.09 137C1186.58 136.71 1185.98 136.613 1185.28 136.613 1184.18 136.613 1183.38 136.903 1182.88 137.484 1182.28 138.065 1182.08 138.839 1182.08 140 1182.08 141.065 1182.28 141.839 1182.88 142.419 1183.38 143 1184.08 143.29 1185.08 143.29 1185.48 143.29 1185.88 143.194 1186.18 143.194ZM1192.59 143.194 1192.59 143.194C1192.89 143.097 1193.29 143 1193.59 142.806L1193.59 141.742C1193.19 141.839 1192.79 142.032 1192.49 142.032 1192.19 142.129 1191.79 142.129 1191.39 142.129 1190.79 142.129 1190.39 142.032 1189.99 141.645 1189.69 141.355 1189.49 140.871 1189.49 140.194L1193.89 140.194 1193.89 139.516C1193.89 138.548 1193.69 137.871 1193.19 137.387 1192.69 136.903 1191.99 136.613 1191.09 136.613 1190.09 136.613 1189.39 136.903 1188.89 137.484 1188.29 138.065 1188.09 138.935 1188.09 140 1188.09 140.968 1188.39 141.839 1188.89 142.419 1189.49 143 1190.29 143.29 1191.39 143.29 1191.79 143.29 1192.19 143.194 1192.59 143.194ZM1192.09 138.065 1192.09 138.065C1192.39 138.355 1192.49 138.742 1192.49 139.226L1189.49 139.226C1189.59 138.742 1189.69 138.355 1189.99 138.065 1190.29 137.774 1190.59 137.677 1191.09 137.677 1191.49 137.677 1191.89 137.774 1192.09 138.065ZM1199.9 140.484 1199.9 140.484C1199.7 140.29 1199.6 140.097 1199.3 139.903 1199.1 139.71 1198.7 139.516 1198.1 139.323 1197.5 139.129 1197 138.935 1196.8 138.742 1196.7 138.645 1196.6 138.452 1196.6 138.258 1196.6 137.871 1196.9 137.677 1197.7 137.677 1198.2 137.677 1198.8 137.774 1199.5 138.065L1199.9 137.097C1199.2 136.71 1198.5 136.613 1197.7 136.613 1196.9 136.613 1196.3 136.71 1195.9 137.097 1195.39 137.387 1195.19 137.774 1195.19 138.355 1195.19 138.839 1195.29 139.129 1195.59 139.419 1195.8 139.71 1196.4 140 1197.1 140.29 1197.5 140.484 1197.8 140.581 1198 140.677 1198.3 140.774 1198.4 140.968 1198.5 141.065 1198.6 141.161 1198.7 141.258 1198.7 141.452 1198.7 141.935 1198.2 142.226 1197.4 142.226 1196.7 142.226 1196 142.032 1195.19 141.645L1195.19 142.903C1195.7 143.097 1196.4 143.29 1197.3 143.29 1198.2 143.29 1198.9 143.097 1199.3 142.71 1199.8 142.419 1200 141.935 1200 141.258 1200 140.968 1200 140.774 1199.9 140.484Z" fill="#FFFFFF" fill-rule="evenodd"/><path d="M939.318 114.101 939.318 114.101C936.492 115.212 932.691 116.121 928.5 116.121 924.309 116.121 920.508 115.212 917.682 114.101 917.292 114 917 114.303 917 114.707L917 140.667C917 140.97 917.097 141.172 917.292 141.273 919.534 142.384 923.627 144 928.5 144 933.275 144 937.369 142.384 939.708 141.273 939.903 141.172 940 140.97 940 140.667L940 114.707C940 114.303 939.61 114 939.318 114.101Z" fill="#FFFFFF" fill-rule="evenodd"/><path d="M974.682 143.798 974.682 143.798C977.508 142.788 981.309 141.778 985.5 141.778 989.691 141.778 993.492 142.788 996.318 143.798 996.61 144 997 143.697 997 143.293L997 117.232C997 117.03 996.903 116.727 996.708 116.727 994.369 115.616 990.275 114 985.5 114 980.725 114 976.534 115.616 974.292 116.727 974.097 116.828 974 117.03 974 117.232L974 143.293C974 143.697 974.292 144 974.682 143.798Z" fill="#FFFFFF" fill-rule="evenodd"/><path d="M945.81 143.798 945.81 143.798C948.747 142.788 952.595 141.778 956.949 141.778 961.405 141.778 965.253 142.788 968.19 143.798 968.595 144 969 143.697 969 143.293L969 117.232C969 117.03 968.797 116.727 968.595 116.727 966.266 115.616 962.013 114 956.949 114 951.987 114 947.734 115.616 945.405 116.727 945.203 116.828 945 117.03 945 117.232L945 143.293C945 143.697 945.405 144 945.81 143.798Z" fill="#FFFFFF" fill-rule="evenodd"/><path d="M939.318 82.0976 939.318 82.0976C936.492 83.1717 932.691 84.1481 928.5 84.1481 924.309 84.1481 920.508 83.1717 917.682 82.0976 917.292 82 917 82.2929 917 82.6835L917 107.875C917 108.071 917.097 108.266 917.292 108.364 919.534 109.438 923.627 111 928.5 111 933.275 111 937.369 109.438 939.708 108.364 939.903 108.266 940 108.071 940 107.875L940 82.6835C940 82.2929 939.61 82 939.318 82.0976Z" fill="#FFFFFF" fill-rule="evenodd"/><path d="M974.682 110.902 974.682 110.902C977.508 109.828 981.309 108.949 985.5 108.949 989.691 108.949 993.492 109.828 996.318 110.902 996.61 111 997 110.707 997 110.316L997 85.2222C997 84.9293 996.903 84.734 996.708 84.6364 994.369 83.5623 990.275 82 985.5 82 980.725 82 976.534 83.5623 974.292 84.6364 974.097 84.734 974 84.9293 974 85.2222L974 110.316C974 110.707 974.292 111 974.682 110.902Z" fill="#FFFFFF" fill-rule="evenodd"/><path d="M945.81 110.9 945.81 110.9C948.747 109.798 952.595 108.896 956.949 108.896 961.405 108.896 965.253 109.798 968.19 110.9 968.595 111 969 110.699 969 110.299L969 59.306C969 59.0055 968.797 58.8051 968.595 58.7049 966.266 57.6029 962.013 56 956.949 56 951.987 56 947.734 57.6029 945.405 58.7049 945.203 58.8051 945 59.0055 945 59.306L945 110.299C945 110.699 945.405 111 945.81 110.9Z" fill="#FFFFFF" fill-rule="evenodd"/><path d="M1040.52 85.2903 1040.52 85.2903 1035.61 85.2903 1035.61 91.7742 1029.91 91.7742 1029.91 85.2903 1025 85.2903 1025 102.806 1029.91 102.806 1029.91 95.6452 1035.61 95.6452 1035.61 102.806 1040.52 102.806 1040.52 85.2903ZM1059.64 87.3226 1059.64 87.3226C1058.14 85.7742 1055.94 85 1053.13 85 1050.23 85 1048.03 85.7742 1046.52 87.3226 1045.02 88.871 1044.22 91.0968 1044.22 94 1044.22 96.9032 1045.02 99.129 1046.52 100.677 1048.03 102.226 1050.23 103 1053.03 103 1055.94 103 1058.14 102.226 1059.64 100.677 1061.14 99.2258 1061.84 97 1061.84 94 1061.84 91.0968 1061.14 88.7742 1059.64 87.3226ZM1053.13 88.871 1053.13 88.871C1054.33 88.871 1055.23 89.2581 1055.84 90.129 1056.44 91 1056.74 92.2581 1056.74 94 1056.74 95.7419 1056.44 97 1055.84 97.871 1055.23 98.6452 1054.33 99.129 1053.03 99.129 1050.63 99.129 1049.43 97.3871 1049.43 94 1049.43 90.6129 1050.63 88.871 1053.13 88.871ZM1075.76 89.2581 1075.76 89.2581C1076.46 89.4516 1077.06 89.6452 1077.76 90.0323L1079.26 86.2581C1077.46 85.4839 1075.66 85 1073.66 85 1071.85 85 1070.35 85.3871 1068.95 86.1613 1067.65 86.8387 1066.65 87.9032 1065.95 89.2581 1065.25 90.7097 1064.85 92.2581 1064.85 94.0968 1064.85 97 1065.65 99.2258 1067.05 100.677 1068.55 102.226 1070.65 103 1073.36 103 1075.26 103 1076.96 102.71 1078.46 102.032L1078.46 98.0645C1077.76 98.3548 1076.96 98.6452 1076.16 98.8387 1075.46 99.0323 1074.66 99.129 1073.86 99.129 1071.25 99.129 1069.95 97.4839 1069.95 94.0968 1069.95 92.4516 1070.25 91.1936 1070.85 90.3226 1071.55 89.3548 1072.45 88.871 1073.66 88.871 1074.36 88.871 1075.06 88.9677 1075.76 89.2581ZM1097.88 85.2903 1097.88 85.2903 1092.98 85.2903 1092.98 91.7742 1087.27 91.7742 1087.27 85.2903 1082.37 85.2903 1082.37 102.806 1087.27 102.806 1087.27 95.6452 1092.98 95.6452 1092.98 102.806 1097.88 102.806 1097.88 85.2903ZM1113.5 94.4839 1113.5 94.4839C1112.9 93.7097 1111.8 93.0323 1110.3 92.3548 1108.6 91.5806 1107.59 91.0968 1107.29 90.9032 1106.89 90.6129 1106.69 90.3226 1106.69 89.9355 1106.69 89.6452 1106.89 89.3548 1107.19 89.1613 1107.39 88.9677 1107.89 88.7742 1108.5 88.7742 1109.8 88.7742 1111.2 89.1613 1112.9 89.9355L1114.4 86.2581C1112.5 85.4839 1110.6 85 1108.7 85 1106.59 85 1104.89 85.4839 1103.69 86.3548 1102.49 87.3226 1101.89 88.5806 1101.89 90.129 1101.89 91 1101.99 91.7742 1102.29 92.3548 1102.59 93.0323 1102.99 93.6129 1103.59 94.0968 1104.19 94.5806 1105.09 95.0645 1106.29 95.5484 1107.59 96.129 1108.4 96.5161 1108.7 96.7097 1109 96.9032 1109.2 97.0968 1109.3 97.2903 1109.5 97.3871 1109.5 97.6774 1109.5 97.871 1109.5 98.2581 1109.4 98.5484 1109 98.8387 1108.7 99.0323 1108.2 99.2258 1107.39 99.2258 1106.59 99.2258 1105.69 99.0323 1104.69 98.8387 1103.59 98.5484 1102.69 98.1613 1101.69 97.6774L1101.69 101.935C1102.59 102.323 1103.49 102.613 1104.29 102.806 1105.09 102.903 1106.09 103 1107.29 103 1108.8 103 1110 102.806 1111.1 102.323 1112.2 101.839 1113 101.161 1113.6 100.387 1114.1 99.5161 1114.4 98.5484 1114.4 97.4839 1114.4 96.3226 1114.1 95.3548 1113.5 94.4839ZM1127.92 89.2581 1127.92 89.2581C1128.62 89.4516 1129.32 89.6452 1129.92 90.0323L1131.42 86.2581C1129.72 85.4839 1127.82 85 1125.82 85 1124.11 85 1122.51 85.3871 1121.21 86.1613 1119.81 86.8387 1118.81 87.9032 1118.11 89.2581 1117.41 90.7097 1117.11 92.2581 1117.11 94.0968 1117.11 97 1117.81 99.2258 1119.31 100.677 1120.71 102.226 1122.81 103 1125.51 103 1127.42 103 1129.12 102.71 1130.72 102.032L1130.72 98.0645C1129.92 98.3548 1129.12 98.6452 1128.42 98.8387 1127.62 99.0323 1126.92 99.129 1126.12 99.129 1123.41 99.129 1122.11 97.4839 1122.11 94.0968 1122.11 92.4516 1122.41 91.1936 1123.11 90.3226 1123.71 89.3548 1124.61 88.871 1125.82 88.871 1126.62 88.871 1127.32 88.9677 1127.92 89.2581ZM1150.14 85.2903 1150.14 85.2903 1145.24 85.2903 1145.24 91.7742 1139.53 91.7742 1139.53 85.2903 1134.63 85.2903 1134.63 102.806 1139.53 102.806 1139.53 95.6452 1145.24 95.6452 1145.24 102.806 1150.14 102.806 1150.14 85.2903ZM1165.06 85.2903 1165.06 85.2903 1165.06 95.5484C1165.06 96.8064 1164.86 97.6774 1164.36 98.2581 1163.96 98.8387 1163.26 99.129 1162.26 99.129 1161.26 99.129 1160.55 98.8387 1160.05 98.2581 1159.65 97.6774 1159.35 96.8064 1159.35 95.5484L1159.35 85.2903 1154.45 85.2903 1154.45 95.9355C1154.45 98.2581 1155.15 100 1156.45 101.161 1157.75 102.419 1159.65 103 1162.16 103 1164.66 103 1166.56 102.419 1167.96 101.161 1169.26 99.9032 1169.97 98.0645 1169.97 95.8387L1169.97 85.2903 1165.06 85.2903ZM1186.18 102.806 1186.18 102.806 1186.18 98.9355 1179.18 98.9355 1179.18 85.2903 1174.27 85.2903 1174.27 102.806 1186.18 102.806ZM1200 98.9355 1200 98.9355 1194.19 98.9355 1194.19 95.6452 1199.6 95.6452 1199.6 91.871 1194.19 91.871 1194.19 89.0645 1200 89.0645 1200 85.2903 1189.29 85.2903 1189.29 102.806 1200 102.806 1200 98.9355Z" fill="#FFFFFF" fill-rule="evenodd"/><path d="M1037.63 126 1037.63 126 1041.24 113.072 1041.34 113.072C1041.24 115.061 1041.24 116.254 1041.24 116.751 1041.14 117.249 1041.14 117.746 1041.14 118.144L1041.14 126 1045.65 126 1045.65 108.099 1039.14 108.099 1035.43 120.829 1035.33 120.829 1031.52 108.099 1025 108.099 1025 126 1029.41 126 1029.41 118.243C1029.41 117.05 1029.31 115.26 1029.11 113.072L1029.21 113.072 1032.92 126 1037.63 126ZM1055.08 108.099 1055.08 108.099 1050.17 108.099 1050.17 126 1055.08 126 1055.08 108.099ZM1067.41 112.077 1067.41 112.077 1071.82 112.077 1071.82 108.099 1058.09 108.099 1058.09 112.077 1062.5 112.077 1062.5 126 1067.41 126 1067.41 112.077ZM1083.45 112.077 1083.45 112.077 1087.87 112.077 1087.87 108.099 1074.13 108.099 1074.13 112.077 1078.54 112.077 1078.54 126 1083.45 126 1083.45 112.077ZM1115.74 108.099 1115.74 108.099 1111.03 108.099 1109.02 117.149C1108.52 119.337 1108.22 120.928 1108.12 121.823 1108.02 121.127 1107.82 120.033 1107.52 118.641 1107.32 117.249 1107.02 115.956 1106.72 114.862L1105.21 108.099 1100.7 108.099 1099.09 114.862C1098.79 115.757 1098.59 116.95 1098.29 118.442 1097.99 119.834 1097.79 121.028 1097.69 121.823 1097.59 120.63 1097.29 119.039 1096.79 117.05L1094.78 108.099 1090.07 108.099 1094.58 126 1100.4 126C1101.4 121.326 1102 118.641 1102.2 117.945 1102.3 117.348 1102.5 116.552 1102.6 115.757 1102.8 114.961 1102.91 114.365 1102.91 113.768 1103.01 114.464 1103.21 115.26 1103.31 116.254 1103.51 117.249 1103.61 117.845 1103.71 118.243L1105.51 126 1111.23 126 1115.74 108.099ZM1129.37 122.122 1129.37 122.122 1123.46 122.122 1123.46 118.641 1128.87 118.641 1128.87 114.762 1123.46 114.762 1123.46 111.978 1129.37 111.978 1129.37 108.099 1118.55 108.099 1118.55 126 1129.37 126 1129.37 122.122ZM1138.3 108.099 1138.3 108.099 1133.39 108.099 1133.39 126 1138.3 126 1138.3 108.099ZM1155.74 110.287 1155.74 110.287C1154.14 108.796 1151.93 108.099 1149.03 108.099L1142.71 108.099 1142.71 126 1148.63 126C1151.63 126 1153.94 125.204 1155.64 123.613 1157.25 122.022 1158.15 119.635 1158.15 116.652 1158.15 113.867 1157.35 111.779 1155.74 110.287ZM1152.03 120.729 1152.03 120.729C1151.33 121.624 1150.23 122.022 1148.73 122.022L1147.62 122.022 1147.62 111.978 1149.03 111.978C1150.43 111.978 1151.43 112.376 1152.03 113.171 1152.74 113.967 1153.04 115.16 1153.04 116.851 1153.04 118.641 1152.74 119.934 1152.03 120.729ZM1177 126 1177 126 1170.98 108 1164.47 108 1158.55 126 1163.97 126 1164.87 122.718 1170.78 122.718 1171.69 126 1177 126ZM1165.87 118.641 1165.87 118.641C1166.67 115.856 1167.07 113.967 1167.37 112.972 1167.58 112.077 1167.68 111.381 1167.78 110.983 1167.88 111.381 1168.08 112.177 1168.28 113.171 1168.58 114.265 1168.78 115.061 1168.98 115.757L1169.78 118.641 1165.87 118.641Z" fill="#FFFFFF" fill-rule="evenodd"/><path d="M1030.61 134.677 1030.61 134.677 1030.61 140C1030.61 141.355 1029.91 142.032 1028.5 142.032 1027.8 142.032 1027.3 141.935 1027 141.548 1026.6 141.258 1026.5 140.677 1026.5 140L1026.5 134.677 1025 134.677 1025 140.097C1025 141.065 1025.3 141.839 1025.9 142.419 1026.5 143 1027.4 143.29 1028.5 143.29 1029.2 143.29 1029.81 143.097 1030.41 142.903 1030.91 142.613 1031.31 142.226 1031.61 141.742 1031.81 141.355 1032.01 140.774 1032.01 140.097L1032.01 134.677 1030.61 134.677ZM1039.92 138.935 1039.92 138.935C1039.92 137.387 1039.12 136.613 1037.51 136.613 1037.01 136.613 1036.61 136.71 1036.21 136.806 1035.91 137 1035.61 137.29 1035.41 137.581L1035.31 137.581 1035.11 136.71 1034.01 136.71 1034.01 143.097 1035.41 143.097 1035.41 139.903C1035.41 139.129 1035.61 138.548 1035.81 138.258 1036.11 137.871 1036.61 137.677 1037.11 137.677 1037.61 137.677 1037.91 137.871 1038.11 138.065 1038.32 138.355 1038.42 138.742 1038.42 139.226L1038.42 143.097 1039.92 143.097 1039.92 138.935ZM1043.22 136.71 1043.22 136.71 1041.72 136.71 1041.72 143.097 1043.22 143.097 1043.22 136.71ZM1041.92 135.548 1041.92 135.548C1042.02 135.742 1042.22 135.742 1042.52 135.742 1042.72 135.742 1042.92 135.742 1043.02 135.548 1043.22 135.452 1043.22 135.258 1043.22 135.065 1043.22 134.774 1043.22 134.581 1043.02 134.484 1042.92 134.29 1042.72 134.29 1042.52 134.29 1042.22 134.29 1042.02 134.29 1041.92 134.484 1041.72 134.581 1041.72 134.774 1041.72 135.065 1041.72 135.258 1041.72 135.452 1041.92 135.548ZM1048.33 143.097 1048.33 143.097 1050.83 136.71 1049.43 136.71 1048.03 140.484C1047.83 141.161 1047.63 141.645 1047.63 141.935L1047.53 141.935C1047.53 141.548 1047.33 141.065 1047.13 140.484L1045.82 136.71 1044.32 136.71 1046.82 143.097 1048.33 143.097ZM1055.94 143.194 1055.94 143.194C1056.24 143.097 1056.64 143 1056.94 142.806L1056.94 141.742C1056.54 141.839 1056.24 142.032 1055.84 142.032 1055.53 142.129 1055.13 142.129 1054.73 142.129 1054.13 142.129 1053.73 142.032 1053.33 141.645 1053.03 141.355 1052.83 140.871 1052.83 140.194L1057.24 140.194 1057.24 139.516C1057.24 138.548 1057.04 137.871 1056.54 137.387 1056.04 136.903 1055.33 136.613 1054.43 136.613 1053.53 136.613 1052.73 136.903 1052.23 137.484 1051.63 138.065 1051.43 138.935 1051.43 140 1051.43 140.968 1051.73 141.839 1052.23 142.419 1052.83 143 1053.63 143.29 1054.73 143.29 1055.13 143.29 1055.53 143.194 1055.94 143.194ZM1055.53 138.065 1055.53 138.065C1055.74 138.355 1055.84 138.742 1055.84 139.226L1052.83 139.226C1052.93 138.742 1053.13 138.355 1053.33 138.065 1053.63 137.774 1054.03 137.677 1054.43 137.677 1054.83 137.677 1055.23 137.774 1055.53 138.065ZM1061.14 136.903 1061.14 136.903C1060.74 137.194 1060.44 137.484 1060.24 137.871L1060.14 137.871 1060.04 136.71 1058.94 136.71 1058.94 143.097 1060.34 143.097 1060.34 139.806C1060.34 139.226 1060.44 138.742 1060.84 138.355 1061.14 138.065 1061.64 137.871 1062.24 137.871 1062.44 137.871 1062.64 137.871 1062.84 137.968L1062.94 136.613C1062.74 136.613 1062.54 136.613 1062.24 136.613 1061.84 136.613 1061.44 136.71 1061.14 136.903ZM1068.65 140.484 1068.65 140.484C1068.45 140.29 1068.35 140.097 1068.05 139.903 1067.85 139.71 1067.45 139.516 1066.85 139.323 1066.25 139.129 1065.75 138.935 1065.65 138.742 1065.45 138.645 1065.35 138.452 1065.35 138.258 1065.35 137.871 1065.65 137.677 1066.45 137.677 1066.95 137.677 1067.55 137.774 1068.25 138.065L1068.65 137.097C1067.95 136.71 1067.25 136.613 1066.45 136.613 1065.65 136.613 1065.05 136.71 1064.65 137.097 1064.14 137.387 1063.94 137.774 1063.94 138.355 1063.94 138.839 1064.04 139.129 1064.34 139.419 1064.65 139.71 1065.15 140 1065.85 140.29 1066.25 140.484 1066.55 140.581 1066.75 140.677 1067.05 140.774 1067.15 140.968 1067.25 141.065 1067.35 141.161 1067.45 141.258 1067.45 141.452 1067.45 141.935 1066.95 142.226 1066.15 142.226 1065.45 142.226 1064.75 142.032 1063.94 141.645L1063.94 142.903C1064.45 143.097 1065.15 143.29 1066.05 143.29 1066.95 143.29 1067.65 143.097 1068.05 142.71 1068.55 142.419 1068.75 141.935 1068.75 141.258 1068.75 140.968 1068.75 140.774 1068.65 140.484ZM1071.75 136.71 1071.75 136.71 1070.25 136.71 1070.25 143.097 1071.75 143.097 1071.75 136.71ZM1070.45 135.548 1070.45 135.548C1070.55 135.742 1070.75 135.742 1071.05 135.742 1071.25 135.742 1071.45 135.742 1071.55 135.548 1071.75 135.452 1071.75 135.258 1071.75 135.065 1071.75 134.774 1071.75 134.581 1071.55 134.484 1071.45 134.29 1071.25 134.29 1071.05 134.29 1070.75 134.29 1070.55 134.29 1070.45 134.484 1070.25 134.581 1070.25 134.774 1070.25 135.065 1070.25 135.258 1070.25 135.452 1070.45 135.548ZM1075.56 141.935 1075.56 141.935C1075.36 141.742 1075.26 141.548 1075.26 141.161L1075.26 137.774 1077.16 137.774 1077.16 136.71 1075.26 136.71 1075.26 135.258 1074.36 135.258 1073.96 136.613 1072.95 137.194 1072.95 137.774 1073.86 137.774 1073.86 141.161C1073.86 142.613 1074.56 143.29 1075.86 143.29 1076.16 143.29 1076.36 143.194 1076.66 143.194 1076.86 143.097 1077.06 143.097 1077.26 143L1077.26 142.032C1076.86 142.129 1076.56 142.129 1076.16 142.129 1075.96 142.129 1075.66 142.032 1075.56 141.935ZM1080.66 143.097 1080.66 143.097 1080.36 143.774C1080.16 144.452 1079.66 144.839 1078.96 144.839 1078.66 144.839 1078.46 144.839 1078.26 144.839L1078.26 145.903C1078.56 145.903 1078.86 146 1079.16 146 1080.36 146 1081.16 145.323 1081.76 143.968L1084.57 136.71 1083.07 136.71C1082.17 139.323 1081.56 140.774 1081.46 141.065 1081.46 141.355 1081.36 141.645 1081.26 141.839L1081.26 141.839C1081.16 141.355 1081.06 140.871 1080.86 140.387L1079.46 136.71 1077.96 136.71 1080.66 143.097ZM1093.48 137.484 1093.48 137.484C1092.88 136.903 1092.18 136.613 1091.18 136.613 1090.17 136.613 1089.47 136.903 1088.87 137.484 1088.27 138.065 1088.07 138.839 1088.07 139.903 1088.07 140.581 1088.17 141.161 1088.47 141.645 1088.67 142.226 1089.07 142.613 1089.57 142.806 1089.97 143.097 1090.57 143.29 1091.18 143.29 1092.18 143.29 1092.98 143 1093.48 142.323 1094.08 141.742 1094.28 140.968 1094.28 139.903 1094.28 138.935 1094.08 138.065 1093.48 137.484ZM1089.87 138.258 1089.87 138.258C1090.17 137.871 1090.57 137.677 1091.18 137.677 1092.28 137.677 1092.88 138.452 1092.88 139.903 1092.88 141.355 1092.28 142.129 1091.18 142.129 1090.07 142.129 1089.47 141.355 1089.47 139.903 1089.47 139.226 1089.67 138.645 1089.87 138.258ZM1099.18 136.71 1099.18 136.71 1097.58 136.71 1097.58 136.323C1097.58 135.935 1097.68 135.645 1097.78 135.452 1097.98 135.258 1098.18 135.161 1098.48 135.161 1098.88 135.161 1099.18 135.161 1099.49 135.355L1099.89 134.29C1099.39 134.097 1098.88 134 1098.38 134 1097.68 134 1097.08 134.194 1096.78 134.581 1096.38 134.968 1096.18 135.548 1096.18 136.323L1096.18 136.71 1095.08 137.097 1095.08 137.774 1096.18 137.774 1096.18 143.097 1097.58 143.097 1097.58 137.774 1099.18 137.774 1099.18 136.71ZM1110.3 143.097 1110.3 143.097 1107.09 134.581 1105.49 134.581 1102.19 143.097 1103.69 143.097 1104.59 140.774 1107.89 140.774 1108.8 143.097 1110.3 143.097ZM1104.99 139.613 1104.99 139.613 1105.79 137.387C1105.99 136.806 1106.19 136.323 1106.29 135.839 1106.29 135.935 1106.39 136.226 1106.49 136.516 1106.59 136.903 1106.69 137.097 1106.69 137.29L1107.59 139.613 1104.99 139.613ZM1116.8 142.323 1116.8 142.323C1117.31 141.742 1117.51 140.968 1117.51 139.903 1117.51 138.839 1117.31 138.065 1116.8 137.484 1116.4 136.903 1115.7 136.613 1114.9 136.613 1114 136.613 1113.4 136.903 1112.9 137.581L1112.9 137.581C1112.8 137.097 1112.7 136.806 1112.7 136.71L1111.5 136.71 1111.5 146 1112.9 146 1112.9 143.387C1112.9 143.194 1112.9 142.903 1112.8 142.419L1112.9 142.419C1113.4 143 1114 143.29 1114.9 143.29 1115.7 143.29 1116.4 143 1116.8 142.323ZM1115.7 138.258 1115.7 138.258C1116 138.645 1116.1 139.226 1116.1 139.903 1116.1 140.581 1116 141.161 1115.7 141.548 1115.4 141.935 1115.1 142.129 1114.6 142.129 1114 142.129 1113.6 141.935 1113.3 141.645 1113.1 141.258 1112.9 140.677 1112.9 139.903L1112.9 139.71C1112.9 139.032 1113.1 138.548 1113.3 138.161 1113.6 137.871 1114 137.677 1114.5 137.677 1115.1 137.677 1115.4 137.871 1115.7 138.258ZM1124.51 142.323 1124.51 142.323C1124.91 141.742 1125.21 140.968 1125.21 139.903 1125.21 138.839 1125.01 138.065 1124.51 137.484 1124.01 136.903 1123.41 136.613 1122.61 136.613 1121.71 136.613 1121.01 136.903 1120.61 137.581L1120.51 137.581C1120.41 137.097 1120.31 136.806 1120.31 136.71L1119.21 136.71 1119.21 146 1120.61 146 1120.61 143.387C1120.61 143.194 1120.61 142.903 1120.51 142.419L1120.61 142.419C1121.01 143 1121.71 143.29 1122.51 143.29 1123.41 143.29 1124.01 143 1124.51 142.323ZM1123.31 138.258 1123.31 138.258C1123.61 138.645 1123.71 139.226 1123.71 139.903 1123.71 140.581 1123.61 141.161 1123.31 141.548 1123.11 141.935 1122.71 142.129 1122.21 142.129 1121.61 142.129 1121.21 141.935 1121.01 141.645 1120.71 141.258 1120.61 140.677 1120.61 139.903L1120.61 139.71C1120.61 139.032 1120.71 138.548 1121.01 138.161 1121.21 137.871 1121.61 137.677 1122.21 137.677 1122.71 137.677 1123.11 137.871 1123.31 138.258ZM1128.22 134.097 1128.22 134.097 1126.82 134.097 1126.82 143.097 1128.22 143.097 1128.22 134.097ZM1131.62 136.71 1131.62 136.71 1130.22 136.71 1130.22 143.097 1131.62 143.097 1131.62 136.71ZM1130.32 135.548 1130.32 135.548C1130.52 135.742 1130.72 135.742 1130.92 135.742 1131.22 135.742 1131.42 135.742 1131.52 135.548 1131.62 135.452 1131.72 135.258 1131.72 135.065 1131.72 134.774 1131.62 134.581 1131.52 134.484 1131.42 134.29 1131.22 134.29 1130.92 134.29 1130.72 134.29 1130.52 134.29 1130.32 134.484 1130.22 134.581 1130.12 134.774 1130.12 135.065 1130.12 135.258 1130.22 135.452 1130.32 135.548ZM1137.73 143.194 1137.73 143.194C1138.03 143.097 1138.43 143 1138.73 142.806L1138.73 141.742C1138.33 141.839 1138.03 142.032 1137.63 142.032 1137.33 142.129 1136.93 142.129 1136.63 142.129 1136.03 142.129 1135.53 142.032 1135.23 141.645 1134.83 141.355 1134.73 140.871 1134.63 140.194L1139.13 140.194 1139.13 139.516C1139.13 138.548 1138.83 137.871 1138.33 137.387 1137.83 136.903 1137.13 136.613 1136.23 136.613 1135.33 136.613 1134.53 136.903 1134.02 137.484 1133.52 138.065 1133.22 138.935 1133.22 140 1133.22 140.968 1133.52 141.839 1134.12 142.419 1134.63 143 1135.53 143.29 1136.53 143.29 1136.93 143.29 1137.33 143.194 1137.73 143.194ZM1137.33 138.065 1137.33 138.065C1137.53 138.355 1137.73 138.742 1137.73 139.226L1134.73 139.226C1134.73 138.742 1134.93 138.355 1135.23 138.065 1135.43 137.774 1135.83 137.677 1136.23 137.677 1136.73 137.677 1137.03 137.774 1137.33 138.065ZM1145.04 142.323 1145.04 142.323 1145.04 142.323 1145.34 143.097 1146.44 143.097 1146.44 134.097 1145.04 134.097 1145.04 136.419C1145.04 136.71 1145.04 137.097 1145.14 137.581L1145.04 137.581C1144.54 136.903 1143.94 136.613 1143.03 136.613 1142.23 136.613 1141.53 136.903 1141.03 137.484 1140.63 138.065 1140.33 138.839 1140.33 139.903 1140.33 140.968 1140.63 141.839 1141.03 142.419 1141.53 143 1142.13 143.29 1143.03 143.29 1143.84 143.29 1144.54 142.903 1145.04 142.323ZM1142.23 141.548 1142.23 141.548C1141.93 141.258 1141.83 140.677 1141.83 140 1141.83 139.226 1141.93 138.645 1142.23 138.258 1142.53 137.871 1142.83 137.677 1143.34 137.677 1143.94 137.677 1144.34 137.871 1144.64 138.258 1144.94 138.548 1145.04 139.129 1145.04 139.903L1145.04 140.097C1145.04 140.871 1144.94 141.355 1144.64 141.645 1144.44 142.032 1143.94 142.129 1143.44 142.129 1142.83 142.129 1142.43 141.935 1142.23 141.548ZM1156.25 139.806 1156.25 139.806C1156.15 139.516 1155.95 139.323 1155.65 139.032 1155.35 138.839 1154.85 138.645 1154.25 138.355 1153.65 138.161 1153.25 137.968 1153.05 137.774 1152.85 137.677 1152.65 137.484 1152.55 137.387 1152.45 137.194 1152.45 137 1152.45 136.806 1152.45 136.419 1152.55 136.226 1152.75 136.032 1153.05 135.839 1153.35 135.742 1153.85 135.742 1154.45 135.742 1155.15 135.839 1155.95 136.226L1156.35 135.065C1155.55 134.677 1154.75 134.581 1153.85 134.581 1152.95 134.581 1152.25 134.774 1151.74 135.161 1151.24 135.548 1150.94 136.129 1150.94 136.806 1150.94 137.387 1151.14 137.871 1151.44 138.258 1151.84 138.645 1152.35 139.032 1153.15 139.323 1153.95 139.613 1154.45 139.903 1154.75 140.097 1154.95 140.29 1155.05 140.581 1155.05 140.968 1155.05 141.258 1154.95 141.548 1154.65 141.742 1154.45 141.935 1153.95 142.032 1153.45 142.032 1153.05 142.032 1152.65 142.032 1152.15 141.935 1151.74 141.839 1151.24 141.645 1150.84 141.452L1150.84 142.806C1151.54 143.097 1152.35 143.29 1153.35 143.29 1154.35 143.29 1155.05 143 1155.65 142.613 1156.25 142.129 1156.55 141.548 1156.55 140.871 1156.55 140.484 1156.45 140.097 1156.25 139.806ZM1161.86 143.194 1161.86 143.194C1162.16 143.097 1162.46 143 1162.66 142.806L1162.66 141.645C1162.16 141.935 1161.56 142.129 1160.86 142.129 1160.35 142.129 1159.95 141.935 1159.65 141.548 1159.35 141.161 1159.15 140.677 1159.15 139.903 1159.15 138.452 1159.75 137.774 1160.96 137.774 1161.36 137.774 1161.76 137.871 1162.36 138.065L1162.86 137C1162.26 136.71 1161.66 136.613 1160.96 136.613 1159.95 136.613 1159.15 136.903 1158.55 137.484 1158.05 138.065 1157.75 138.839 1157.75 140 1157.75 141.065 1158.05 141.839 1158.55 142.419 1159.05 143 1159.85 143.29 1160.86 143.29 1161.26 143.29 1161.56 143.194 1161.86 143.194ZM1165.56 136.71 1165.56 136.71 1164.16 136.71 1164.16 143.097 1165.56 143.097 1165.56 136.71ZM1164.26 135.548 1164.26 135.548C1164.46 135.742 1164.66 135.742 1164.86 135.742 1165.16 135.742 1165.36 135.742 1165.46 135.548 1165.56 135.452 1165.66 135.258 1165.66 135.065 1165.66 134.774 1165.56 134.581 1165.46 134.484 1165.36 134.29 1165.16 134.29 1164.86 134.29 1164.66 134.29 1164.46 134.29 1164.26 134.484 1164.16 134.581 1164.06 134.774 1164.06 135.065 1164.06 135.258 1164.16 135.452 1164.26 135.548ZM1171.67 143.194 1171.67 143.194C1171.97 143.097 1172.37 143 1172.67 142.806L1172.67 141.742C1172.27 141.839 1171.97 142.032 1171.57 142.032 1171.27 142.129 1170.87 142.129 1170.57 142.129 1169.97 142.129 1169.47 142.032 1169.16 141.645 1168.76 141.355 1168.66 140.871 1168.56 140.194L1173.07 140.194 1173.07 139.516C1173.07 138.548 1172.77 137.871 1172.27 137.387 1171.77 136.903 1171.07 136.613 1170.17 136.613 1169.26 136.613 1168.46 136.903 1167.96 137.484 1167.46 138.065 1167.16 138.935 1167.16 140 1167.16 140.968 1167.46 141.839 1168.06 142.419 1168.56 143 1169.47 143.29 1170.47 143.29 1170.87 143.29 1171.27 143.194 1171.67 143.194ZM1171.27 138.065 1171.27 138.065C1171.47 138.355 1171.67 138.742 1171.67 139.226L1168.66 139.226C1168.66 138.742 1168.86 138.355 1169.16 138.065 1169.36 137.774 1169.77 137.677 1170.17 137.677 1170.67 137.677 1170.97 137.774 1171.27 138.065ZM1180.48 138.935 1180.48 138.935C1180.48 137.387 1179.68 136.613 1178.07 136.613 1177.67 136.613 1177.27 136.71 1176.87 136.806 1176.47 137 1176.27 137.29 1176.07 137.581L1175.97 137.581 1175.77 136.71 1174.67 136.71 1174.67 143.097 1176.07 143.097 1176.07 139.903C1176.07 139.129 1176.17 138.548 1176.47 138.258 1176.77 137.871 1177.17 137.677 1177.77 137.677 1178.28 137.677 1178.58 137.871 1178.78 138.065 1178.98 138.355 1179.08 138.742 1179.08 139.226L1179.08 143.097 1180.48 143.097 1180.48 138.935ZM1186.18 143.194 1186.18 143.194C1186.48 143.097 1186.68 143 1186.99 142.806L1186.99 141.645C1186.38 141.935 1185.78 142.129 1185.18 142.129 1184.68 142.129 1184.18 141.935 1183.98 141.548 1183.68 141.161 1183.48 140.677 1183.48 139.903 1183.48 138.452 1184.08 137.774 1185.18 137.774 1185.58 137.774 1186.08 137.871 1186.68 138.065L1187.09 137C1186.58 136.71 1185.98 136.613 1185.28 136.613 1184.18 136.613 1183.38 136.903 1182.88 137.484 1182.28 138.065 1182.08 138.839 1182.08 140 1182.08 141.065 1182.28 141.839 1182.88 142.419 1183.38 143 1184.08 143.29 1185.08 143.29 1185.48 143.29 1185.88 143.194 1186.18 143.194ZM1192.59 143.194 1192.59 143.194C1192.89 143.097 1193.29 143 1193.59 142.806L1193.59 141.742C1193.19 141.839 1192.79 142.032 1192.49 142.032 1192.19 142.129 1191.79 142.129 1191.39 142.129 1190.79 142.129 1190.39 142.032 1189.99 141.645 1189.69 141.355 1189.49 140.871 1189.49 140.194L1193.89 140.194 1193.89 139.516C1193.89 138.548 1193.69 137.871 1193.19 137.387 1192.69 136.903 1191.99 136.613 1191.09 136.613 1190.09 136.613 1189.39 136.903 1188.89 137.484 1188.29 138.065 1188.09 138.935 1188.09 140 1188.09 140.968 1188.39 141.839 1188.89 142.419 1189.49 143 1190.29 143.29 1191.39 143.29 1191.79 143.29 1192.19 143.194 1192.59 143.194ZM1192.09 138.065 1192.09 138.065C1192.39 138.355 1192.49 138.742 1192.49 139.226L1189.49 139.226C1189.59 138.742 1189.69 138.355 1189.99 138.065 1190.29 137.774 1190.59 137.677 1191.09 137.677 1191.49 137.677 1191.89 137.774 1192.09 138.065ZM1199.9 140.484 1199.9 140.484C1199.7 140.29 1199.6 140.097 1199.3 139.903 1199.1 139.71 1198.7 139.516 1198.1 139.323 1197.5 139.129 1197 138.935 1196.8 138.742 1196.7 138.645 1196.6 138.452 1196.6 138.258 1196.6 137.871 1196.9 137.677 1197.7 137.677 1198.2 137.677 1198.8 137.774 1199.5 138.065L1199.9 137.097C1199.2 136.71 1198.5 136.613 1197.7 136.613 1196.9 136.613 1196.3 136.71 1195.9 137.097 1195.39 137.387 1195.19 137.774 1195.19 138.355 1195.19 138.839 1195.29 139.129 1195.59 139.419 1195.8 139.71 1196.4 140 1197.1 140.29 1197.5 140.484 1197.8 140.581 1198 140.677 1198.3 140.774 1198.4 140.968 1198.5 141.065 1198.6 141.161 1198.7 141.258 1198.7 141.452 1198.7 141.935 1198.2 142.226 1197.4 142.226 1196.7 142.226 1196 142.032 1195.19 141.645L1195.19 142.903C1195.7 143.097 1196.4 143.29 1197.3 143.29 1198.2 143.29 1198.9 143.097 1199.3 142.71 1199.8 142.419 1200 141.935 1200 141.258 1200 140.968 1200 140.774 1199.9 140.484Z" fill="#FFFFFF" fill-rule="evenodd"/><path d="M1280 573 1280 573C1125.63 573 982.067 587.449 861.794 612.233 846.798 615.344 836 628.689 836 644.042L836 720 1280 720 1280 573Z" fill="#005095" fill-rule="evenodd"/><text fill="#FFFFFF" font-family="Open Sans,Open Sans_MSFontService,sans-serif" font-weight="700" font-size="17" transform="translate(1058.62 652)">hs</text><text fill="#FFFFFF" font-family="Open Sans,Open Sans_MSFontService,sans-serif" font-weight="700" font-size="17" transform="translate(1078.62 652)">-</text><text fill="#FFFFFF" font-family="Open Sans,Open Sans_MSFontService,sans-serif" font-weight="700" font-size="17" transform="translate(1084.12 652)">mittweida.de</text><path d="M106 106 106 106C120.366 106 132 94.4444 132 80.0507 132 65.6569 120.366 54 106 54 91.6342 54 80 65.6569 80 80.0507 80 94.4444 91.6342 106 106 106Z" fill="#005095" fill-rule="evenodd"/><path d="M121.5 82.6771 121.5 82.6771 121.5 79.2214 121.007 79.0181 117.355 77.7984 116.368 75.3591 118.243 71.2935 115.875 68.7525 115.382 69.0574 112.026 70.7853 109.658 69.7689 108.178 65.5001 104.724 65.5001 104.526 66.0082 103.342 69.7689 100.974 70.7853 97.0264 68.8541 94.658 71.3951 94.8553 71.8017 96.6316 75.3591 95.6448 77.7984 91.5001 79.323 91.5001 82.8804 91.9935 82.982 95.6448 84.3033 96.6316 86.641 94.7566 90.8083 97.1251 93.2476 97.6185 93.0443 101.072 91.2148 103.342 92.2312 104.822 96.5001 108.276 96.5001 108.474 95.9919 109.658 92.2312 112.026 91.2148 115.974 93.146 118.342 90.7066 118.145 90.1984 116.368 86.641 117.355 84.2017 121.5 82.6771 121.5 82.6771ZM106.5 85.9296 106.5 85.9296C103.836 85.9296 101.665 83.7951 101.665 81.0509 101.665 78.3066 103.836 76.0705 106.5 76.0705 109.165 76.0705 111.336 78.3066 111.336 81.0509 111.336 83.7951 109.165 85.9296 106.5 85.9296L106.5 85.9296Z" stroke="#FEFEFE" stroke-width="0.666667" stroke-linecap="round" stroke-linejoin="round" stroke-miterlimit="10" fill="none" fill-rule="evenodd"/><text fill="#005095" font-family="Open Sans,Open Sans_MSFontService,sans-serif" font-weight="700" font-size="27" transform="translate(153.143 89)">Ingenieurwissenschaften</text></g></svg>